<svg width="120" height="120" viewBox="0 0 120 120" fill="none" xmlns="http://www.w3.org/2000/svg">
<g clip-path="url(#clip0_4288_1717)">
<path d="M70.501 76.5L70.501 109.498" stroke="#2A2A2A"/>
<path d="M85.4326 69.7266V109.498" stroke="#2A2A2A"/>
<path d="M93.5 109.5L62 109.5" stroke="#2A2A2A" stroke-linecap="round"/>
<path d="M39.5 69.5C39.2239 69.5 39 69.7239 39 70C39 70.2761 39.2239 70.5 39.5 70.5V69.5ZM114.855 70V70.5H115.359L115.355 69.9962L114.855 70ZM114.554 30.348L114.054 30.3518L114.554 30.348ZM39.5 70V70.5H114.855V70V69.5H39.5V70ZM114.855 70L115.355 69.9962L115.054 30.3442L114.554 30.348L114.054 30.3518L114.355 70.0038L114.855 70ZM94.5542 10.5L94.5542 10L56.0479 10L56.0479 10.5L56.0479 11L94.5542 11L94.5542 10.5ZM114.554 30.348L115.054 30.3442C114.968 19.0835 105.815 10 94.5542 10L94.5542 10.5L94.5542 11C105.266 11 113.972 19.6404 114.054 30.3518L114.554 30.348Z" fill="#2A2A2A"/>
<path d="M78 74V70H52V74C52 75.1046 52.8954 76 54 76H76C77.1046 76 78 75.1046 78 74Z" stroke="#2A2A2A"/>
<path d="M54.5 76H7C5.89543 76 5 75.1046 5 74V70H79" stroke="#2A2A2A"/>
<path d="M57.8027 10.5C69.0154 10.5001 78.1055 19.59 78.1055 30.8027V69.5H37.5V30.8027C37.5 19.59 46.59 10.5 57.8027 10.5Z" fill="#2A2A2A" stroke="#2A2A2A"/>
<path d="M47.9219 53C47.8985 53.1745 47.8858 53.3524 47.8857 53.5332C47.8857 55.7295 49.6606 57.5112 51.8545 57.5215C49.8661 57.5308 48.2213 58.9949 47.9307 60.9043C47.899 60.9001 47.8673 60.8975 47.8359 60.8926C47.5705 59.1839 46.2214 57.8336 44.5127 57.5684C44.508 57.5379 44.505 57.5072 44.501 57.4766C46.4165 57.185 47.8838 55.5302 47.8838 53.5332C47.8838 53.3553 47.8702 53.1805 47.8477 53.0088C47.8722 53.005 47.8971 53.0033 47.9219 53ZM52.3965 57.5566C52.2314 57.535 52.0634 57.5223 51.8926 57.5215C52.0664 57.5207 52.2374 57.5077 52.4053 57.4854C52.4021 57.5091 52.4001 57.533 52.3965 57.5566Z" fill="white" fill-opacity="0.48"/>
<path d="M21.1934 13C21.1579 13.2651 21.1387 13.5357 21.1387 13.8105C21.1388 17.1467 23.8381 19.8519 27.1719 19.8623C24.1501 19.8717 21.6487 22.0955 21.207 24.9961C21.1588 24.9898 21.1104 24.985 21.0625 24.9775C20.6594 22.3851 18.6121 20.3362 16.0195 19.9336C16.0123 19.887 16.0071 19.8399 16.001 19.793C18.908 19.3506 21.1356 16.8411 21.1357 13.8105C21.1357 13.5407 21.1153 13.2751 21.0811 13.0146C21.1183 13.009 21.1559 13.005 21.1934 13ZM27.9834 19.915C27.7301 19.8819 27.4721 19.8631 27.21 19.8623C27.4768 19.8615 27.7394 19.8419 27.9971 19.8076C27.9923 19.8435 27.9888 19.8794 27.9834 19.915Z" fill="white" fill-opacity="0.48"/>
<ellipse cx="73" cy="64.5" rx="1.5" ry="1.5" fill="white" fill-opacity="0.48"/>
<ellipse cx="50" cy="19.5" rx="1.5" ry="1.5" fill="white" fill-opacity="0.48"/>
<ellipse cx="62.5" cy="45" rx="1" ry="1" fill="white" fill-opacity="0.48"/>
<ellipse cx="38.501" cy="34" rx="1" ry="1" fill="white" fill-opacity="0.48"/>
<path d="M17.9971 48.5C23.7944 48.5 28.4941 53.1997 28.4941 58.9971C28.4941 64.7944 23.7944 69.4941 17.9971 69.4941C12.1997 69.4941 7.5 64.7944 7.5 58.9971C7.5 53.1997 12.1997 48.5 17.9971 48.5Z" fill="url(#paint0_radial_4288_1717)" stroke="#2A2A2A"/>
<mask id="mask0_4288_1717" style="mask-type:alpha" maskUnits="userSpaceOnUse" x="7" y="48" width="22" height="22">
<ellipse cx="17.9967" cy="58.9947" rx="10.0806" ry="10.0806" fill="#DFDFDF"/>
</mask>
<g mask="url(#mask0_4288_1717)">
<g filter="url(#filter0_f_4288_1717)">
<ellipse cx="17.997" cy="64.4946" rx="6.41496" ry="5.49853" fill="white" fill-opacity="0.49"/>
</g>
</g>
<ellipse cx="21.8466" cy="54.5179" rx="2.65044" ry="1.84791" transform="rotate(37.3246 21.8466 54.5179)" fill="url(#paint1_linear_4288_1717)"/>
<path d="M63 21.5C66.5899 21.5 69.5 24.4101 69.5 28C69.5 31.5899 66.5899 34.5 63 34.5C59.4101 34.5 56.5 31.5899 56.5 28C56.5 24.4101 59.4101 21.5 63 21.5Z" fill="url(#paint2_radial_4288_1717)" stroke="#2A2A2A"/>
<mask id="mask1_4288_1717" style="mask-type:alpha" maskUnits="userSpaceOnUse" x="56" y="21" width="14" height="14">
<ellipse cx="62.9997" cy="27.9987" rx="6.41667" ry="6.41667" fill="#DFDFDF"/>
</mask>
<g mask="url(#mask1_4288_1717)">
<g filter="url(#filter1_f_4288_1717)">
<ellipse cx="63.0003" cy="31.5" rx="4.08333" ry="3.5" fill="white" fill-opacity="0.49"/>
</g>
</g>
<ellipse cx="65.4507" cy="25.1497" rx="1.68709" ry="1.17626" transform="rotate(37.3246 65.4507 25.1497)" fill="url(#paint3_linear_4288_1717)"/>
</g>
<defs>
<filter id="filter0_f_4288_1717" x="3.58203" y="50.9961" width="28.8301" height="26.9961" filterUnits="userSpaceOnUse" color-interpolation-filters="sRGB">
<feFlood flood-opacity="0" result="BackgroundImageFix"/>
<feBlend mode="normal" in="SourceGraphic" in2="BackgroundImageFix" result="shape"/>
<feGaussianBlur stdDeviation="4" result="effect1_foregroundBlur_4288_1717"/>
</filter>
<filter id="filter1_f_4288_1717" x="50.917" y="20" width="24.167" height="23" filterUnits="userSpaceOnUse" color-interpolation-filters="sRGB">
<feFlood flood-opacity="0" result="BackgroundImageFix"/>
<feBlend mode="normal" in="SourceGraphic" in2="BackgroundImageFix" result="shape"/>
<feGaussianBlur stdDeviation="4" result="effect1_foregroundBlur_4288_1717"/>
</filter>
<radialGradient id="paint0_radial_4288_1717" cx="0" cy="0" r="1" gradientUnits="userSpaceOnUse" gradientTransform="translate(17.5 55) rotate(93.9452) scale(14.5344 14.5344)">
<stop stop-color="#999999"/>
<stop offset="1" stop-color="#191919"/>
</radialGradient>
<linearGradient id="paint1_linear_4288_1717" x1="21.8466" y1="52.67" x2="21.8466" y2="56.3658" gradientUnits="userSpaceOnUse">
<stop stop-color="white" stop-opacity="0.24"/>
<stop offset="1" stop-color="white" stop-opacity="0"/>
</linearGradient>
<radialGradient id="paint2_radial_4288_1717" cx="0" cy="0" r="1" gradientUnits="userSpaceOnUse" gradientTransform="translate(62.6836 25.4557) rotate(93.9452) scale(9.25166)">
<stop stop-color="#999999"/>
<stop offset="1" stop-color="#191919"/>
</radialGradient>
<linearGradient id="paint3_linear_4288_1717" x1="65.4507" y1="23.9735" x2="65.4507" y2="26.326" gradientUnits="userSpaceOnUse">
<stop stop-color="white" stop-opacity="0.24"/>
<stop offset="1" stop-color="white" stop-opacity="0"/>
</linearGradient>
<clipPath id="clip0_4288_1717">
<rect width="120" height="120" fill="white"/>
</clipPath>
</defs>
</svg>
