<svg width="120" height="120" viewBox="0 0 120 120" fill="none" xmlns="http://www.w3.org/2000/svg">
<g clip-path="url(#clip0_4288_1716)">
<path d="M70.501 69.7266V109.498" stroke="black"/>
<path d="M85.4326 69.7266V109.498" stroke="black"/>
<path d="M93.5 109.5L62 109.5" stroke="black" stroke-linecap="round"/>
<path d="M39.5 69.5C39.2239 69.5 39 69.7239 39 70C39 70.2761 39.2239 70.5 39.5 70.5V69.5ZM114.855 70V70.5H115.359L115.355 69.9962L114.855 70ZM114.554 30.348L114.054 30.3518L114.554 30.348ZM39.5 70V70.5H114.855V70V69.5H39.5V70ZM114.855 70L115.355 69.9962L115.054 30.3442L114.554 30.348L114.054 30.3518L114.355 70.0038L114.855 70ZM94.5542 10.5L94.5542 10L56.0479 10L56.0479 10.5L56.0479 11L94.5542 11L94.5542 10.5ZM114.554 30.348L115.054 30.3442C114.968 19.0835 105.815 10 94.5542 10L94.5542 10.5L94.5542 11C105.266 11 113.972 19.6404 114.054 30.3518L114.554 30.348Z" fill="black"/>
<path d="M78.5 74V70H52V74C52 75.1046 52.8954 76 54 76H76.5C77.6046 76 78.5 75.1046 78.5 74Z" fill="white" stroke="black"/>
<path d="M54.5 76H7C5.89543 76 5 75.1046 5 74V70H79" stroke="black"/>
<path d="M57.8027 10.5C69.0154 10.5001 78.1055 19.59 78.1055 30.8027V69.5H37.5V30.8027C37.5 19.59 46.59 10.5 57.8027 10.5Z" fill="black" stroke="black"/>
<path fill-rule="evenodd" clip-rule="evenodd" d="M44.5 57.4774C46.416 57.1862 47.8842 55.5318 47.8842 53.5345C47.8842 53.3567 47.8726 53.1817 47.8501 53.0101C47.8736 53.0065 47.8972 53.0032 47.9208 53C47.8974 53.1748 47.8853 53.3532 47.8853 53.5345C47.8853 55.7178 49.6397 57.4914 51.8157 57.5224C49.844 57.5506 48.2185 59.0093 47.9306 60.9073C47.8992 60.9032 47.868 60.8987 47.8369 60.8939C47.5717 59.1851 46.2218 57.835 44.5132 57.5695C44.5084 57.5389 44.504 57.5082 44.5 57.4774ZM52.3973 57.5561C52.2446 57.5361 52.0893 57.5247 51.9317 57.5224C52.0926 57.5201 52.2513 57.5083 52.4071 57.4875C52.404 57.5104 52.4007 57.5333 52.3973 57.5561Z" fill="white"/>
<path fill-rule="evenodd" clip-rule="evenodd" d="M16 19.7948C18.9076 19.353 21.1356 16.8423 21.1356 13.8113C21.1356 13.5415 21.118 13.2759 21.0838 13.0155C21.1199 13.01 21.1562 13.0049 21.1925 13C21.157 13.2654 21.1386 13.5362 21.1386 13.8113C21.1386 17.1337 23.8156 19.8309 27.1303 19.8636C24.1262 19.8932 21.6459 22.1114 21.2075 25.0001C21.1593 24.9938 21.1114 24.987 21.0637 24.9795C20.661 22.3868 18.6128 20.3383 16.0201 19.9353C16.0129 19.8887 16.0062 19.8419 16 19.7948ZM27.9845 19.9148C27.7445 19.8834 27.5001 19.866 27.2522 19.8636C27.5053 19.8611 27.7546 19.843 27.9994 19.8104C27.9947 19.8453 27.9897 19.8801 27.9845 19.9148Z" fill="black"/>
<ellipse cx="73" cy="64.5" rx="1.5" ry="1.5" fill="white"/>
<ellipse cx="50" cy="19.5" rx="1.5" ry="1.5" fill="white"/>
<ellipse cx="62.5" cy="45" rx="1" ry="1" fill="white"/>
<ellipse cx="38.501" cy="34" rx="1" ry="1" fill="white"/>
<path d="M62.498 21.25C66.2248 21.2501 69.2461 24.2713 69.2461 27.998C69.246 31.7247 66.2247 34.746 62.498 34.7461C58.7713 34.7461 55.7501 31.7248 55.75 27.998C55.75 24.2713 58.7713 21.25 62.498 21.25Z" fill="#DDDDDD" stroke="black" stroke-width="0.5"/>
<mask id="mask0_4288_1716" style="mask-type:alpha" maskUnits="userSpaceOnUse" x="56" y="21" width="13" height="14">
<ellipse cx="62.4958" cy="27.9968" rx="6.41477" ry="6.41476" fill="#DFDFDF"/>
</mask>
<g mask="url(#mask0_4288_1716)">
<g filter="url(#filter0_f_4288_1716)">
<ellipse cx="62.4952" cy="31.4951" rx="4.08212" ry="3.49896" fill="white"/>
</g>
</g>
<ellipse cx="65.0407" cy="25.2178" rx="1.56792" ry="1.17594" transform="rotate(37.3246 65.0407 25.2178)" fill="url(#paint0_linear_4288_1716)"/>
<path d="M17.9971 48.5C23.7944 48.5 28.4941 53.1997 28.4941 58.9971C28.4941 64.7944 23.7944 69.4941 17.9971 69.4941C12.1997 69.4941 7.5 64.7944 7.5 58.9971C7.5 53.1997 12.1997 48.5 17.9971 48.5Z" fill="#DDDDDD" stroke="black"/>
<mask id="mask1_4288_1716" style="mask-type:alpha" maskUnits="userSpaceOnUse" x="7" y="48" width="22" height="22">
<ellipse cx="17.9967" cy="58.9947" rx="10.0806" ry="10.0806" fill="#DFDFDF"/>
</mask>
<g mask="url(#mask1_4288_1716)">
<g filter="url(#filter1_f_4288_1716)">
<ellipse cx="17.997" cy="64.4946" rx="6.41496" ry="5.49853" fill="white"/>
</g>
</g>
<ellipse cx="21.9951" cy="54.6314" rx="2.46388" ry="1.84791" transform="rotate(37.3246 21.9951 54.6314)" fill="url(#paint1_linear_4288_1716)"/>
</g>
<defs>
<filter id="filter0_f_4288_1716" x="46.4131" y="15.9961" width="32.1641" height="30.9961" filterUnits="userSpaceOnUse" color-interpolation-filters="sRGB">
<feFlood flood-opacity="0" result="BackgroundImageFix"/>
<feBlend mode="normal" in="SourceGraphic" in2="BackgroundImageFix" result="shape"/>
<feGaussianBlur stdDeviation="6" result="effect1_foregroundBlur_4288_1716"/>
</filter>
<filter id="filter1_f_4288_1716" x="-0.417969" y="46.9961" width="36.8301" height="34.9961" filterUnits="userSpaceOnUse" color-interpolation-filters="sRGB">
<feFlood flood-opacity="0" result="BackgroundImageFix"/>
<feBlend mode="normal" in="SourceGraphic" in2="BackgroundImageFix" result="shape"/>
<feGaussianBlur stdDeviation="6" result="effect1_foregroundBlur_4288_1716"/>
</filter>
<linearGradient id="paint0_linear_4288_1716" x1="65.0407" y1="24.0419" x2="65.0407" y2="26.3938" gradientUnits="userSpaceOnUse">
<stop stop-color="white"/>
<stop offset="1" stop-color="white" stop-opacity="0"/>
</linearGradient>
<linearGradient id="paint1_linear_4288_1716" x1="21.9951" y1="52.7835" x2="21.9951" y2="56.4793" gradientUnits="userSpaceOnUse">
<stop stop-color="white"/>
<stop offset="1" stop-color="white" stop-opacity="0"/>
</linearGradient>
<clipPath id="clip0_4288_1716">
<rect width="120" height="120" fill="white"/>
</clipPath>
</defs>
</svg>
