<svg height="43" viewBox="0 0 40 43" width="40" xmlns="http://www.w3.org/2000/svg"><g fill="#fff" fill-rule="evenodd"><path d="m19.682 0-3.935 3.934-1.967-1.967-8.14 8.14h-3.61l4.196-5.245h1.652l1.312-1.312h-3.594l-5.392 6.74a.726.726 0 0 0 -.11.138l-.084.105v.12a.593.593 0 0 0 0 .213v32.028h39.344v-32.02a.593.593 0 0 0 0-.213v-.128l-.082-.105a.884.884 0 0 0 -.115-.144l-5.39-6.734h-3.593l1.311 1.312h1.652l4.196 5.246h-2.298l-8.14-8.14-2.623 2.622zm0 1.855 4.59 4.59.04-.044a.656.656 0 1 0 .844-.843l1.739-1.736 6.286 6.286h-3.663a.657.657 0 0 0 -.656-.656.657.657 0 0 0 -.656.656h-6.556a.657.657 0 0 0 -.656-.656.657.657 0 0 0 -.656.656h-12.844l6.286-6.286 1.967 1.967 3.935-3.934zm-2.623 3.662a.657.657 0 0 0 -.656.656.657.657 0 0 0 1.311 0 .657.657 0 0 0 -.655-.656zm1.311 1.313a.657.657 0 0 0 -.655.656c0 .36.294.655.655.655a.657.657 0 0 0 .656-.655.657.657 0 0 0 -.656-.656zm7.87 0a.657.657 0 0 0 -.657.656.657.657 0 0 0 1.311 0 .657.657 0 0 0 -.655-.656zm-6.559 1.31a.657.657 0 0 0 -.656.656.657.657 0 0 0 1.311 0 .657.657 0 0 0 -.655-.656zm7.869 0a.657.657 0 0 0 -.656.656.657.657 0 0 0 1.311 0 .657.657 0 0 0 -.655-.656zm-26.23 3.28h36.721v30.163h-36.719v-30.164zm3.935 26.884a.657.657 0 0 0 -.656.656.657.657 0 0 0 1.311 0 .657.657 0 0 0 -.655-.656zm2.622 0a.657.657 0 0 0 -.655.656c0 .361.294.656.655.656a.657.657 0 0 0 .656-.656.657.657 0 0 0 -.656-.656zm2.623 0a.657.657 0 0 0 -.655.656c0 .361.294.656.655.656a.657.657 0 0 0 .656-.656.657.657 0 0 0 -.656-.656zm2.623 0a.657.657 0 0 0 -.655.656c0 .361.294.656.655.656a.657.657 0 0 0 .656-.656.657.657 0 0 0 -.656-.656zm2.623 0a.657.657 0 0 0 -.655.656c0 .361.294.656.655.656a.657.657 0 0 0 .656-.656.657.657 0 0 0 -.656-.656zm2.623 0a.657.657 0 0 0 -.655.656c0 .361.294.656.655.656a.657.657 0 0 0 .656-.656.657.657 0 0 0 -.656-.656zm2.623 0a.657.657 0 0 0 -.656.656.657.657 0 0 0 1.311 0 .657.657 0 0 0 -.655-.656zm2.623 0a.657.657 0 0 0 -.656.656.657.657 0 0 0 1.311 0 .657.657 0 0 0 -.655-.656zm2.623 0a.657.657 0 0 0 -.656.656.657.657 0 0 0 1.311 0 .657.657 0 0 0 -.655-.656zm2.623 0a.657.657 0 0 0 -.656.656.657.657 0 0 0 1.311 0 .657.657 0 0 0 -.655-.656zm2.623 0a.657.657 0 0 0 -.656.656.657.657 0 0 0 1.311 0 .657.657 0 0 0 -.655-.656zm2.623 0a.657.657 0 0 0 -.656.656.657.657 0 0 0 1.311 0 .657.657 0 0 0 -.655-.656z" fill-rule="nonzero"/><path d="m19.838 16.393-7.29 4.216-.089.053v8.524l7.38 4.257 7.289-4.207.09-.055v-8.519zm.184 4.316v-3.784l6.649 3.842-4.963 2.872zm-7.02.047 6.657-3.83v3.783l-1.691 2.924zm10.573 6.12-1.687-2.93 4.967-2.878v7.692l-3.28-1.883zm-10.75-5.808 4.967 2.877-1.682 2.917-3.284 1.895v-7.689zm5.473 2.744 1.367-2.37v3.162zm1.728-2.366 1.366 2.37-1.366.788zm-1.91 2.682 1.366.792-2.737 1.578zm2.085.792 1.363-.787 1.37 2.37zm-.175.317 3.053 1.761-3.053 1.762zm-3.413 1.761 3.052-1.761v3.523zm-3.607 2.079 3.236-1.866 3.417 1.975v3.732zm7.02.115 3.416-1.974 3.236 1.866-6.656 3.834z" stroke="#fff" stroke-width=".5"/></g></svg>