<svg viewBox="0 0 24 17" xmlns="http://www.w3.org/2000/svg">
    <path
        d="M79.4248 0.700195C85.1132 0.700234 89.7244 5.31169 89.7246 11V54.2344C89.7244 59.9227 85.1132 64.5341 79.4248 64.5342H11.1562C5.46786 64.5342 0.856682 59.9227 0.856445 54.2344V54.0186H5.45605V54.2344C5.45629 57.3822 8.00837 59.9336 11.1562 59.9336H79.4248C82.5726 59.9336 85.1248 57.3822 85.125 54.2344V11C85.1248 7.8522 82.5727 5.29984 79.4248 5.2998H11.1562C8.00837 5.2998 5.45629 7.85217 5.45605 11V11.4893H0.856445V11C0.856676 5.31166 5.46786 0.700195 11.1562 0.700195H79.4248ZM11.293 17.6914C14.2375 17.6914 16.7876 18.3114 18.9434 19.5508C21.1254 20.762 22.8219 22.4798 24.0312 24.7051C25.2406 26.9304 25.8447 29.5504 25.8447 32.5645C25.8447 35.5502 25.2405 38.1418 24.0312 40.3389C22.8219 42.536 21.1255 44.2399 18.9434 45.4512C16.7875 46.6624 14.2375 47.2686 11.293 47.2686H1V17.6914H11.293ZM35.2061 47.2686H29.8818V17.6914H35.2061V47.2686ZM50.8828 17.6914C53.8272 17.6914 56.3774 18.3114 58.5332 19.5508C60.7151 20.7619 62.4108 22.48 63.6201 24.7051C64.8295 26.9304 65.4346 29.5505 65.4346 32.5645C65.4346 35.5503 64.8295 38.1417 63.6201 40.3389C62.4108 42.5359 60.7152 44.2399 58.5332 45.4512C56.3774 46.6624 53.8272 47.2685 50.8828 47.2686H40.5898V17.6914H50.8828ZM73.4785 36.7568C75.1235 36.7568 76.457 38.0913 76.457 39.7363C76.4568 41.3811 75.1234 42.7148 73.4785 42.7148C71.8338 42.7147 70.5003 41.381 70.5 39.7363C70.5 38.0914 71.8336 36.757 73.4785 36.7568ZM6.32422 42.4941H11.1357C14.1064 42.4941 16.3934 41.6204 17.9971 39.874C19.6008 38.0994 20.4023 35.663 20.4023 32.5645C20.4023 29.4378 19.6008 26.9727 17.9971 25.1699C16.3934 23.3674 14.1063 22.4659 11.1357 22.4658H6.32422V42.4941ZM45.9141 42.4941H50.7246C53.6954 42.4941 55.9832 41.6205 57.5869 39.874C59.1905 38.0994 59.9922 35.6628 59.9922 32.5645C59.9922 29.4378 59.1906 26.9727 57.5869 25.1699C55.9832 23.3672 53.6954 22.4658 50.7246 22.4658H45.9141V42.4941ZM73.4785 22.8574C75.1235 22.8574 76.457 24.1909 76.457 25.8359C76.457 27.4809 75.1235 28.8145 73.4785 28.8145C71.8336 28.8143 70.5 27.4808 70.5 25.8359C70.5 24.191 71.8337 22.8576 73.4785 22.8574Z"
        fill="currentColor" />
</svg>