<svg width="384" height="216" viewBox="0 0 384 216" fill="none" xmlns="http://www.w3.org/2000/svg">
<g clip-path="url(#clip0_13_53)">
<rect width="384" height="216" fill="#1E4DCF" style="fill:#1E4DCF;fill:color(display-p3 0.1176 0.3020 0.8118);fill-opacity:1;"/>
<g filter="url(#filter0_d_13_53)">
<path d="M32 44C32 37.3726 37.3726 32 44 32H804V216H32V44Z" fill="white" style="fill:white;fill-opacity:1;" shape-rendering="crispEdges"/>
<path d="M76.5648 126H32V216H804V43H159.565C148.548 43 143.04 43 138.743 44.9281C133.823 47.1358 129.886 51.0735 127.678 55.9934C125.75 60.2903 125.75 65.7985 125.75 76.8148C125.75 92.8386 125.75 100.85 122.945 107.101C119.734 114.257 114.007 119.984 106.851 123.195C100.6 126 92.5886 126 76.5648 126Z" fill="#F1F3F4" style="fill:#F1F3F4;fill:color(display-p3 0.9451 0.9529 0.9569);fill-opacity:1;"/>
<path d="M206.571 72.0455H209.562L214.122 79.9801H214.31L218.869 72.0455H221.861L215.528 82.6477V89.5H212.903V82.6477L206.571 72.0455ZM227.501 89.7642C226.273 89.7642 225.202 89.483 224.288 88.9205C223.373 88.358 222.663 87.571 222.157 86.5597C221.651 85.5483 221.398 84.3665 221.398 83.0142C221.398 81.6562 221.651 80.4687 222.157 79.4517C222.663 78.4347 223.373 77.6449 224.288 77.0824C225.202 76.5199 226.273 76.2386 227.501 76.2386C228.728 76.2386 229.799 76.5199 230.714 77.0824C231.629 77.6449 232.339 78.4347 232.844 79.4517C233.35 80.4687 233.603 81.6562 233.603 83.0142C233.603 84.3665 233.35 85.5483 232.844 86.5597C232.339 87.571 231.629 88.358 230.714 88.9205C229.799 89.483 228.728 89.7642 227.501 89.7642ZM227.509 87.625C228.305 87.625 228.964 87.4148 229.487 86.9943C230.009 86.5739 230.396 86.0142 230.646 85.3153C230.901 84.6165 231.029 83.8466 231.029 83.0057C231.029 82.1705 230.901 81.4034 230.646 80.7045C230.396 80 230.009 79.4347 229.487 79.0085C228.964 78.5824 228.305 78.3693 227.509 78.3693C226.708 78.3693 226.043 78.5824 225.515 79.0085C224.992 79.4347 224.603 80 224.347 80.7045C224.097 81.4034 223.972 82.1705 223.972 83.0057C223.972 83.8466 224.097 84.6165 224.347 85.3153C224.603 86.0142 224.992 86.5739 225.515 86.9943C226.043 87.4148 226.708 87.625 227.509 87.625ZM244.74 84.071V76.4091H247.297V89.5H244.791V87.233H244.655C244.354 87.9318 243.871 88.5142 243.206 88.9801C242.547 89.4403 241.726 89.6705 240.743 89.6705C239.902 89.6705 239.158 89.4858 238.51 89.1165C237.868 88.7415 237.362 88.1875 236.993 87.4545C236.629 86.7216 236.447 85.8153 236.447 84.7358V76.4091H238.996V84.429C238.996 85.321 239.243 86.0312 239.737 86.5597C240.232 87.0881 240.874 87.3523 241.663 87.3523C242.141 87.3523 242.615 87.233 243.087 86.9943C243.564 86.7557 243.959 86.3949 244.271 85.9119C244.589 85.429 244.746 84.8153 244.74 84.071ZM250.721 89.5V76.4091H253.184V78.4886H253.32C253.559 77.7841 253.979 77.2301 254.582 76.8267C255.19 76.4176 255.877 76.2131 256.644 76.2131C256.803 76.2131 256.991 76.2187 257.207 76.2301C257.428 76.2415 257.602 76.2557 257.727 76.2727V78.7102C257.624 78.6818 257.442 78.6506 257.181 78.6165C256.92 78.5767 256.658 78.5568 256.397 78.5568C255.795 78.5568 255.258 78.6847 254.786 78.9403C254.32 79.1903 253.951 79.5398 253.678 79.9886C253.406 80.4318 253.269 80.9375 253.269 81.5057V89.5H250.721ZM276.008 76.6307C275.917 75.8239 275.542 75.1989 274.883 74.7557C274.224 74.3068 273.394 74.0824 272.394 74.0824C271.678 74.0824 271.059 74.196 270.536 74.4233C270.013 74.6449 269.607 74.9517 269.317 75.3438C269.033 75.7301 268.891 76.1705 268.891 76.6648C268.891 77.0795 268.988 77.4375 269.181 77.7386C269.38 78.0398 269.638 78.2926 269.957 78.4972C270.281 78.696 270.627 78.8636 270.996 79C271.366 79.1307 271.721 79.2386 272.062 79.3239L273.766 79.767C274.323 79.9034 274.894 80.0881 275.479 80.321C276.065 80.554 276.607 80.8608 277.107 81.2415C277.607 81.6222 278.011 82.0938 278.317 82.6562C278.63 83.2188 278.786 83.892 278.786 84.6761C278.786 85.6648 278.531 86.5426 278.019 87.3097C277.513 88.0767 276.778 88.6818 275.812 89.125C274.852 89.5682 273.69 89.7898 272.326 89.7898C271.019 89.7898 269.888 89.5824 268.934 89.1676C267.979 88.7528 267.232 88.1648 266.692 87.4034C266.153 86.6364 265.854 85.7273 265.798 84.6761H268.44C268.491 85.3068 268.695 85.8324 269.053 86.2528C269.417 86.6676 269.88 86.9773 270.442 87.1818C271.011 87.3807 271.633 87.4801 272.309 87.4801C273.053 87.4801 273.715 87.3636 274.295 87.1307C274.88 86.892 275.34 86.5625 275.675 86.142C276.011 85.7159 276.178 85.2187 276.178 84.6506C276.178 84.1335 276.031 83.7102 275.735 83.3807C275.445 83.0511 275.05 82.7784 274.55 82.5625C274.056 82.3466 273.496 82.1562 272.871 81.9915L270.809 81.429C269.411 81.0483 268.303 80.4886 267.485 79.75C266.673 79.0114 266.266 78.0341 266.266 76.8182C266.266 75.8125 266.539 74.9347 267.085 74.1847C267.63 73.4347 268.369 72.8523 269.3 72.4375C270.232 72.017 271.283 71.8068 272.454 71.8068C273.636 71.8068 274.678 72.0142 275.582 72.429C276.491 72.8438 277.207 73.4148 277.729 74.142C278.252 74.8636 278.525 75.6932 278.548 76.6307H276.008ZM281.729 89.5V76.4091H284.277V89.5H281.729ZM283.016 74.3892C282.572 74.3892 282.192 74.2415 281.874 73.946C281.561 73.6449 281.405 73.2869 281.405 72.8722C281.405 72.4517 281.561 72.0937 281.874 71.7983C282.192 71.4972 282.572 71.3466 283.016 71.3466C283.459 71.3466 283.837 71.4972 284.149 71.7983C284.467 72.0937 284.626 72.4517 284.626 72.8722C284.626 73.2869 284.467 73.6449 284.149 73.946C283.837 74.2415 283.459 74.3892 283.016 74.3892ZM293.816 76.4091V78.4545H286.665V76.4091H293.816ZM288.583 73.2727H291.131V85.6562C291.131 86.1506 291.205 86.5227 291.353 86.7727C291.501 87.017 291.691 87.1847 291.924 87.2756C292.163 87.3608 292.421 87.4034 292.7 87.4034C292.904 87.4034 293.083 87.3892 293.237 87.3608C293.39 87.3324 293.509 87.3097 293.594 87.2926L294.055 89.3977C293.907 89.4545 293.697 89.5114 293.424 89.5682C293.151 89.6307 292.81 89.6648 292.401 89.6705C291.731 89.6818 291.106 89.5625 290.526 89.3125C289.947 89.0625 289.478 88.6761 289.12 88.1534C288.762 87.6307 288.583 86.9744 288.583 86.1847V73.2727ZM302.136 89.7642C300.847 89.7642 299.736 89.4886 298.804 88.9375C297.878 88.3807 297.162 87.5994 296.656 86.5938C296.156 85.5824 295.906 84.3977 295.906 83.0398C295.906 81.6989 296.156 80.517 296.656 79.4943C297.162 78.4716 297.866 77.6733 298.77 77.0994C299.679 76.5256 300.741 76.2386 301.957 76.2386C302.696 76.2386 303.412 76.3608 304.105 76.6051C304.798 76.8494 305.42 77.233 305.972 77.7557C306.523 78.2784 306.957 78.9574 307.276 79.7926C307.594 80.6222 307.753 81.6307 307.753 82.8182V83.7216H297.347V81.8125H305.256C305.256 81.142 305.119 80.5483 304.847 80.0312C304.574 79.5085 304.19 79.0966 303.696 78.7955C303.207 78.4943 302.634 78.3438 301.974 78.3438C301.259 78.3438 300.634 78.5199 300.099 78.8722C299.571 79.2187 299.162 79.6733 298.872 80.2358C298.588 80.7926 298.446 81.3977 298.446 82.0511V83.5426C298.446 84.4176 298.599 85.1619 298.906 85.7756C299.219 86.3892 299.653 86.858 300.21 87.1818C300.767 87.5 301.418 87.6591 302.162 87.6591C302.645 87.6591 303.085 87.5909 303.483 87.4545C303.881 87.3125 304.224 87.1023 304.514 86.8239C304.804 86.5455 305.026 86.2017 305.179 85.7926L307.591 86.2273C307.398 86.9375 307.051 87.5597 306.551 88.0938C306.057 88.6222 305.435 89.0341 304.685 89.3295C303.94 89.6193 303.091 89.7642 302.136 89.7642ZM331.224 72.0455V89.5H328.804L319.932 76.6989H319.77V89.5H317.136V72.0455H319.574L328.455 84.8636H328.616V72.0455H331.224ZM338.671 89.7898C337.842 89.7898 337.092 89.6364 336.421 89.3295C335.751 89.017 335.219 88.5653 334.827 87.9744C334.441 87.3835 334.248 86.6591 334.248 85.8011C334.248 85.0625 334.39 84.4545 334.674 83.9773C334.958 83.5 335.342 83.1222 335.825 82.8438C336.308 82.5653 336.847 82.3551 337.444 82.2131C338.04 82.071 338.648 81.9631 339.268 81.8892C340.052 81.7983 340.688 81.7244 341.177 81.6676C341.665 81.6051 342.021 81.5057 342.242 81.3693C342.464 81.233 342.575 81.0114 342.575 80.7045V80.6449C342.575 79.9006 342.364 79.3239 341.944 78.9148C341.529 78.5057 340.91 78.3011 340.086 78.3011C339.228 78.3011 338.552 78.4915 338.058 78.8722C337.569 79.2472 337.231 79.6648 337.043 80.125L334.648 79.5795C334.933 78.7841 335.347 78.142 335.893 77.6534C336.444 77.1591 337.077 76.8011 337.793 76.5795C338.509 76.3523 339.262 76.2386 340.052 76.2386C340.575 76.2386 341.129 76.3011 341.714 76.4261C342.305 76.5455 342.856 76.767 343.367 77.0909C343.884 77.4148 344.308 77.8778 344.637 78.4801C344.967 79.0767 345.131 79.8523 345.131 80.8068V89.5H342.643V87.7102H342.54C342.376 88.0398 342.129 88.3636 341.799 88.6818C341.469 89 341.046 89.2642 340.529 89.4744C340.012 89.6847 339.393 89.7898 338.671 89.7898ZM339.225 87.7443C339.93 87.7443 340.532 87.6051 341.032 87.3267C341.538 87.0483 341.921 86.6847 342.183 86.2358C342.45 85.7812 342.583 85.2955 342.583 84.7784V83.0909C342.492 83.1818 342.316 83.267 342.055 83.3466C341.799 83.4205 341.506 83.4858 341.177 83.5426C340.847 83.5937 340.526 83.642 340.214 83.6875C339.901 83.7273 339.64 83.7614 339.43 83.7898C338.935 83.8523 338.484 83.9574 338.075 84.1051C337.671 84.2528 337.347 84.4659 337.103 84.7443C336.864 85.017 336.745 85.3807 336.745 85.8352C336.745 86.4659 336.978 86.9432 337.444 87.267C337.91 87.5852 338.504 87.7443 339.225 87.7443ZM348.526 89.5V76.4091H350.972V78.5398H351.134C351.406 77.8182 351.852 77.2557 352.472 76.8523C353.091 76.4432 353.832 76.2386 354.696 76.2386C355.571 76.2386 356.304 76.4432 356.895 76.8523C357.491 77.2614 357.932 77.8239 358.216 78.5398H358.352C358.665 77.8409 359.162 77.2841 359.844 76.8693C360.526 76.4489 361.338 76.2386 362.281 76.2386C363.469 76.2386 364.438 76.6108 365.188 77.3551C365.943 78.0994 366.321 79.2216 366.321 80.7216V89.5H363.773V80.9602C363.773 80.0739 363.531 79.4318 363.048 79.0341C362.565 78.6364 361.989 78.4375 361.318 78.4375C360.489 78.4375 359.844 78.6932 359.384 79.2045C358.923 79.7102 358.693 80.3608 358.693 81.1562V89.5H356.153V80.7983C356.153 80.0881 355.932 79.517 355.489 79.0852C355.045 78.6534 354.469 78.4375 353.759 78.4375C353.276 78.4375 352.83 78.5653 352.42 78.821C352.017 79.071 351.69 79.4205 351.44 79.8693C351.196 80.3182 351.074 80.8381 351.074 81.429V89.5H348.526ZM375.379 89.7642C374.089 89.7642 372.978 89.4886 372.046 88.9375C371.12 88.3807 370.404 87.5994 369.898 86.5938C369.398 85.5824 369.148 84.3977 369.148 83.0398C369.148 81.6989 369.398 80.517 369.898 79.4943C370.404 78.4716 371.109 77.6733 372.012 77.0994C372.921 76.5256 373.984 76.2386 375.2 76.2386C375.938 76.2386 376.654 76.3608 377.347 76.6051C378.04 76.8494 378.663 77.233 379.214 77.7557C379.765 78.2784 380.2 78.9574 380.518 79.7926C380.836 80.6222 380.995 81.6307 380.995 82.8182V83.7216H370.589V81.8125H378.498C378.498 81.142 378.362 80.5483 378.089 80.0312C377.816 79.5085 377.433 79.0966 376.938 78.7955C376.45 78.4943 375.876 78.3438 375.217 78.3438C374.501 78.3438 373.876 78.5199 373.342 78.8722C372.813 79.2187 372.404 79.6733 372.114 80.2358C371.83 80.7926 371.688 81.3977 371.688 82.0511V83.5426C371.688 84.4176 371.842 85.1619 372.148 85.7756C372.461 86.3892 372.896 86.858 373.452 87.1818C374.009 87.5 374.66 87.6591 375.404 87.6591C375.887 87.6591 376.327 87.5909 376.725 87.4545C377.123 87.3125 377.467 87.1023 377.756 86.8239C378.046 86.5455 378.268 86.2017 378.421 85.7926L380.833 86.2273C380.64 86.9375 380.293 87.5597 379.793 88.0938C379.299 88.6222 378.677 89.0341 377.927 89.3295C377.183 89.6193 376.333 89.7642 375.379 89.7642Z" fill="#242527" style="fill:#242527;fill:color(display-p3 0.1412 0.1451 0.1529);fill-opacity:1;"/>
<path d="M85 161.333L62.4765 161.333L70.0507 153.873L67.6584 151.507L56 163.007L67.6583 174.507L70.0507 172.14L62.4765 164.681L85 164.681L85 161.333Z" fill="#242527" style="fill:#242527;fill:color(display-p3 0.1412 0.1451 0.1529);fill-opacity:1;"/>
<path opacity="0.4" d="M106 164.681H128.524L120.949 172.141L123.342 174.507L135 163.007L123.342 151.507L120.949 153.873L128.524 161.333H106V164.681Z" fill="#242527" style="fill:#242527;fill:color(display-p3 0.1412 0.1451 0.1529);fill-opacity:1;"/>
<path d="M181.89 164.538L178.665 164.153C178.398 166.379 177.37 168.445 175.756 170.001C174.142 171.558 172.04 172.509 169.806 172.696C167.571 172.882 165.341 172.291 163.491 171.024C161.642 169.756 160.286 167.889 159.654 165.738C159.021 163.587 159.151 161.283 160.02 159.217C160.889 157.15 162.444 155.446 164.424 154.393C166.404 153.34 168.686 153.003 170.886 153.438C173.085 153.873 175.068 155.053 176.498 156.78H172.443V160.03H182.107V150.366H178.858V154.553C177.262 152.669 175.156 151.286 172.794 150.568C170.334 149.817 167.707 149.812 165.245 150.555C162.782 151.297 160.596 152.754 158.961 154.74C157.327 156.725 156.319 159.151 156.064 161.711C155.809 164.27 156.319 166.847 157.53 169.116C158.136 170.258 158.906 171.304 159.816 172.222C161.542 173.943 163.717 175.143 166.093 175.686C168.469 176.229 170.95 176.093 173.252 175.293C175.554 174.493 177.585 173.062 179.113 171.163C180.64 169.264 181.603 166.973 181.89 164.553V164.538Z" fill="#242527" style="fill:#242527;fill:color(display-p3 0.1412 0.1451 0.1529);fill-opacity:1;"/>
<path d="M208 161.7C208 149.379 208 143.218 210.398 138.512C212.507 134.373 215.873 131.007 220.012 128.898C224.718 126.5 230.879 126.5 243.2 126.5H804V199.5H243.2C230.879 199.5 224.718 199.5 220.012 197.102C215.873 194.993 212.507 191.627 210.398 187.488C208 182.782 208 176.621 208 164.3V161.7Z" fill="white" style="fill:white;fill-opacity:1;"/>
</g>
<rect x="229" y="145" width="180" height="36" rx="8" fill="#DFE1E5" style="fill:#DFE1E5;fill:color(display-p3 0.8745 0.8824 0.8980);fill-opacity:1;"/>
<rect x="203" y="66" width="180" height="36" rx="8" fill="#DFE1E5" style="fill:#DFE1E5;fill:color(display-p3 0.8745 0.8824 0.8980);fill-opacity:1;"/>
</g>
<defs>
<filter id="filter0_d_13_53" x="-21.3333" y="-3.55555" width="878.667" height="290.667" filterUnits="userSpaceOnUse" color-interpolation-filters="sRGB">
<feFlood flood-opacity="0" result="BackgroundImageFix"/>
<feColorMatrix in="SourceAlpha" type="matrix" values="0 0 0 0 0 0 0 0 0 0 0 0 0 0 0 0 0 0 127 0" result="hardAlpha"/>
<feOffset dy="17.7778"/>
<feGaussianBlur stdDeviation="26.6667"/>
<feComposite in2="hardAlpha" operator="out"/>
<feColorMatrix type="matrix" values="0 0 0 0 0 0 0 0 0 0 0 0 0 0 0 0 0 0 0.5 0"/>
<feBlend mode="normal" in2="BackgroundImageFix" result="effect1_dropShadow_13_53"/>
<feBlend mode="normal" in="SourceGraphic" in2="effect1_dropShadow_13_53" result="shape"/>
</filter>
<clipPath id="clip0_13_53">
<rect width="384" height="216" fill="white" style="fill:white;fill-opacity:1;"/>
</clipPath>
</defs>
</svg>
