<svg xmlns="http://www.w3.org/2000/svg" fill="none" viewBox="0 0 384 216">
  <g clip-path="url(#a)">
    <path fill="color(display-p3 .1255 .3333 .898)" d="M0 0h384v216H0z" />
    <g filter="url(#b)">
      <rect width="1600" height="887.778" x="32" y="32" fill="#1a1a1a" rx="12" shape-rendering="crispEdges" />
      <g clip-path="url(#c)">
        <path fill="color(display-p3 .2 .2 .2)" d="M32 44c0-6.627 5.373-12 12-12h1588v46.667H32V44Z" />
        <rect width="13.333" height="13.333" x="55.333" y="49.778" fill="color(display-p3 .9255 .4196 .3686)"
          rx="6.667" />
        <rect width="13.333" height="13.333" x="77.556" y="49.778" fill="color(display-p3 .9569 .749 .3098)"
          rx="6.667" />
        <rect width="13.333" height="13.333" x="99.778" y="49.778" fill="color(display-p3 .3804 .7686 .3255)"
          rx="6.667" />
        <g clip-path="url(#d)">
          <path fill="#2a2a2a"
            d="M128.667 49.778a8.888 8.888 0 0 1 8.889-8.89h248.888c4.91 0 8.889 3.98 8.889 8.89v28.889H128.667v-28.89Z" />
          <path stroke="color(display-p3 .8 .8 .8)" stroke-linecap="round" stroke-linejoin="round" stroke-width="1.667"
            d="m374.222 56.444 3.334 3.334m0 0 3.333-3.334m-3.333 3.334-3.334 3.333m3.334-3.333 3.333 3.333" />
          <rect width="180" height="18" x="140" y="51" fill="color(display-p3 .3 .3 .3)" rx="4" />
        </g>
      </g>
      <path fill="#1a1a1a" d="M32 78.667h1600v40H32z" />
      <path stroke="color(display-p3 .8 .8 .8)" stroke-linecap="round" stroke-linejoin="round" stroke-width="1.667"
        d="M63.111 98.667H49.778m0 0L56.444 92m-6.666 6.667 6.666 6.666m28.889-6.666h13.334m0 0L92 92m6.667 6.667L92 105.333" />
      <path fill="color(display-p3 .8 .8 .8)" fill-rule="evenodd"
        d="M122.278 98.667a5.278 5.278 0 0 1 9.524-3.136l-2.024 2.024h5.555V92l-2.343 2.343a6.944 6.944 0 1 0 .752 7.48.834.834 0 0 0-1.484-.758 5.278 5.278 0 0 1-9.98-2.398Z"
        clip-rule="evenodd" />
      <rect width="1360" height="31.111" x="152" y="83.111" fill="color(display-p3 .2 .2 .2)" rx="15.556" />
      <path fill="color(display-p3 .8 .8 .8)" fill-rule="evenodd"
        d="M172 93.111a2.778 2.778 0 0 0-2.778 2.778V97h-.555a1.11 1.11 0 0 0-1.111 1.111v5.556c0 .613.497 1.111 1.111 1.111h6.666c.614 0 1.111-.498 1.111-1.111v-5.556A1.11 1.11 0 0 0 175.333 97h-.555v-1.111A2.778 2.778 0 0 0 172 93.11ZM173.667 97v-1.111a1.667 1.667 0 0 0-3.334 0V97h3.334Z"
        clip-rule="evenodd" />
      <path fill="color(display-p3 .8 .8 .8)"
        d="M195.695 102.373v-4.231c0-.324-.066-.605-.198-.843a1.29 1.29 0 0 0-.577-.562c-.258-.132-.577-.198-.957-.198-.355 0-.666.061-.934.183a1.624 1.624 0 0 0-.623.478 1.05 1.05 0 0 0-.221.638h-1.405c0-.293.076-.585.228-.873.152-.289.37-.55.653-.783a3.271 3.271 0 0 1 1.033-.562 4.072 4.072 0 0 1 1.352-.212c.598 0 1.125.1 1.58.303.461.203.821.51 1.079.92.263.405.395.913.395 1.526v3.828c0 .274.023.565.068.874.051.309.124.575.22.797v.122h-1.466a2.684 2.684 0 0 1-.167-.646 5.26 5.26 0 0 1-.06-.759Zm.243-3.578.015.988h-1.421c-.4 0-.757.032-1.07.098a2.463 2.463 0 0 0-.79.281 1.34 1.34 0 0 0-.487.479 1.273 1.273 0 0 0-.167.661c0 .258.059.493.175.706.117.213.291.382.524.509.238.122.529.182.874.182a2.357 2.357 0 0 0 1.921-.942c.198-.263.304-.519.319-.767l.6.676a2.034 2.034 0 0 1-.288.707 3.402 3.402 0 0 1-1.557 1.329 3.02 3.02 0 0 1-1.2.228c-.557 0-1.046-.109-1.466-.327a2.51 2.51 0 0 1-.973-.873 2.322 2.322 0 0 1-.341-1.238c0-.441.086-.828.258-1.163.172-.339.42-.62.744-.843.324-.228.714-.4 1.17-.516a6.173 6.173 0 0 1 1.527-.175h1.633Zm4.777-1.944v6.927h-1.405v-8.219h1.367l.038 1.292Zm2.567-1.337-.007 1.306a2.035 2.035 0 0 0-.334-.045 3.579 3.579 0 0 0-.35-.015c-.324 0-.61.05-.858.151a1.777 1.777 0 0 0-.63.426c-.173.182-.309.4-.411.653a3.132 3.132 0 0 0-.189.82l-.395.228c0-.496.048-.962.144-1.397.101-.436.256-.82.463-1.155.208-.34.471-.602.79-.79.324-.192.709-.288 1.155-.288.101 0 .217.012.349.038.132.02.223.043.273.068Zm4.436 7.261c.334 0 .643-.068.927-.205.283-.137.516-.324.699-.562.182-.243.286-.519.311-.828h1.337c-.025.486-.19.939-.494 1.36a3.372 3.372 0 0 1-1.177 1.01c-.486.253-1.02.38-1.603.38-.618 0-1.157-.109-1.618-.327a3.213 3.213 0 0 1-1.139-.896 3.998 3.998 0 0 1-.676-1.307 5.504 5.504 0 0 1-.22-1.572v-.319c0-.552.073-1.073.22-1.564a3.99 3.99 0 0 1 .676-1.314c.304-.38.684-.679 1.139-.897.461-.218 1-.326 1.618-.326.643 0 1.205.131 1.686.395.481.258.859.612 1.132 1.063.279.445.431.952.456 1.519h-1.337a2.01 2.01 0 0 0-.289-.919 1.794 1.794 0 0 0-.668-.653 1.867 1.867 0 0 0-.98-.25c-.43 0-.792.085-1.086.257a1.898 1.898 0 0 0-.691.684c-.167.283-.289.6-.365.95a5.214 5.214 0 0 0-.106 1.055v.32c0 .359.035.713.106 1.063.071.349.19.665.357.949.172.284.403.511.691.684.294.167.659.25 1.094.25Zm4.846-10.664h1.413v10.072l-.122 1.595h-1.291V92.111Zm6.965 7.49v.159c0 .597-.071 1.152-.212 1.663-.142.507-.35.947-.623 1.322a2.897 2.897 0 0 1-1.003.873c-.395.208-.848.312-1.359.312-.522 0-.98-.089-1.375-.266a2.707 2.707 0 0 1-.988-.782 4.064 4.064 0 0 1-.645-1.231 7.769 7.769 0 0 1-.327-1.625v-.7c.061-.607.17-1.151.327-1.632a4.05 4.05 0 0 1 .645-1.23 2.6 2.6 0 0 1 .988-.783c.39-.182.843-.273 1.359-.273.517 0 .975.1 1.375.303.4.198.734.481 1.003.851a4 4 0 0 1 .623 1.33c.141.51.212 1.08.212 1.708Zm-1.413.159v-.16c0-.41-.038-.795-.113-1.154a2.993 2.993 0 0 0-.365-.957 1.81 1.81 0 0 0-.661-.653c-.273-.162-.61-.243-1.01-.243-.355 0-.663.06-.927.182a2.014 2.014 0 0 0-.661.493 2.64 2.64 0 0 0-.448.7 3.993 3.993 0 0 0-.25.804v1.831c.081.354.212.696.395 1.025.187.324.435.59.744.798.314.207.701.311 1.162.311.38 0 .704-.076.972-.228.274-.157.494-.372.661-.645.172-.274.299-.59.38-.95.081-.359.121-.744.121-1.154Zm4.717-7.649v11.667h-1.412V92.111h1.412Zm1.884 7.649v-.175c0-.592.086-1.142.258-1.648a3.9 3.9 0 0 1 .745-1.33c.324-.38.716-.673 1.177-.88a3.653 3.653 0 0 1 1.549-.32c.578 0 1.097.107 1.557.32.466.207.861.5 1.185.88.329.375.58.819.752 1.33.172.506.258 1.056.258 1.648v.175c0 .592-.086 1.142-.258 1.648a3.948 3.948 0 0 1-.752 1.329 3.429 3.429 0 0 1-1.177.881c-.456.208-.972.312-1.549.312a3.747 3.747 0 0 1-1.558-.312 3.513 3.513 0 0 1-1.184-.881 4.002 4.002 0 0 1-.745-1.329 5.093 5.093 0 0 1-.258-1.648Zm1.405-.175v.175c0 .41.048.797.144 1.162.097.359.241.678.433.957a2.2 2.2 0 0 0 .737.661c.294.157.636.235 1.025.235.384 0 .722-.078 1.011-.235.293-.162.536-.383.729-.661.192-.279.337-.598.433-.957.101-.365.152-.752.152-1.162v-.175c0-.405-.051-.787-.152-1.147a2.939 2.939 0 0 0-.441-.964 2.086 2.086 0 0 0-.729-.669 2.046 2.046 0 0 0-1.018-.243c-.385 0-.724.081-1.018.243a2.195 2.195 0 0 0-.729.669c-.192.278-.336.6-.433.964a4.43 4.43 0 0 0-.144 1.147Zm9.236-2.392v6.585h-1.413v-8.219h1.337l.076 1.633Zm-.288 2.164-.654-.022a5.603 5.603 0 0 1 .221-1.558c.141-.48.351-.898.63-1.253a2.793 2.793 0 0 1 1.041-.82c.415-.198.896-.296 1.443-.296.385 0 .739.055 1.063.167.324.106.605.276.843.509.238.233.423.531.555.896.131.364.197.805.197 1.322v5.476h-1.405V98.37c0-.43-.073-.775-.22-1.033a1.262 1.262 0 0 0-.608-.562 2.192 2.192 0 0 0-.927-.183c-.415 0-.762.074-1.04.22-.279.148-.501.35-.669.608a2.74 2.74 0 0 0-.364.89 4.948 4.948 0 0 0-.106 1.047Zm5.324-.775-.942.29c.005-.451.079-.885.22-1.3a3.52 3.52 0 0 1 .631-1.109 2.98 2.98 0 0 1 1.025-.767c.405-.192.869-.288 1.39-.288.441 0 .831.058 1.17.174.344.117.633.297.866.54.238.238.418.544.539.919.122.374.182.82.182 1.336v5.401h-1.412v-5.416c0-.46-.074-.817-.221-1.07a1.145 1.145 0 0 0-.607-.54 2.432 2.432 0 0 0-.927-.16c-.309 0-.582.054-.82.16a1.695 1.695 0 0 0-.6.44 1.943 1.943 0 0 0-.373.631 2.341 2.341 0 0 0-.121.76Z" />
      <rect width="99" height="18" x="187" y="90" fill="color(display-p3 .3 .3 .3)" rx="4" />
      <path fill="color(display-p3 .2 .2 .2)" d="M32 118.667h1600v1.111H32z" />
      <g clip-path="url(#e)">
        <path fill="color(display-p3 .1 .1 .1)" d="M32 119.778h1600v800H32z" />
        <path fill="#1a1a1a" d="M32 119.778h1600v800H32z" />
        <path fill="#1a1a1a" d="M32 119.778h1531.11v91.417H32z" />
        <rect x="79.723" y="145.457" width="119.774" height="40.0594" rx="8"
          style="fill:color(display-p3 .3 .3 .3);fill-opacity:1;" />
        <path fill="#fff"
          d="M248.364 170.986v-11.599h2.101v4.91h5.375v-4.91h2.107v11.599h-2.107v-4.927h-5.375v4.927h-2.101Zm15.891.17c-.849 0-1.586-.187-2.209-.56a3.813 3.813 0 0 1-1.45-1.569c-.339-.672-.509-1.458-.509-2.356 0-.899.17-1.686.509-2.362a3.804 3.804 0 0 1 1.45-1.575c.623-.374 1.36-.56 2.209-.56.85 0 1.586.186 2.209.56a3.758 3.758 0 0 1 1.444 1.575c.344.676.516 1.463.516 2.362 0 .898-.172 1.684-.516 2.356a3.766 3.766 0 0 1-1.444 1.569c-.623.373-1.359.56-2.209.56Zm.012-1.642c.46 0 .845-.127 1.155-.38.31-.256.54-.6.691-1.031.155-.43.232-.909.232-1.438 0-.532-.077-1.014-.232-1.444-.151-.435-.381-.78-.691-1.037-.31-.257-.695-.385-1.155-.385-.472 0-.865.128-1.179.385-.309.257-.541.602-.696 1.037a4.34 4.34 0 0 0-.227 1.444c0 .529.076 1.008.227 1.438.155.431.387.775.696 1.031.314.253.707.38 1.179.38Zm6.216 1.472v-8.699h1.96v1.478h.101c.182-.498.482-.887.901-1.167.419-.283.919-.424 1.501-.424.589 0 1.085.143 1.489.43.408.283.695.67.861 1.161h.091a2.38 2.38 0 0 1 .974-1.155c.461-.291 1.006-.436 1.637-.436.8 0 1.454.253 1.96.758.506.506.759 1.245.759 2.215v5.839h-2.056v-5.522c0-.54-.144-.934-.431-1.184-.287-.253-.638-.379-1.053-.379-.495 0-.882.155-1.161.464-.276.306-.414.705-.414 1.195v5.426h-2.01v-5.607c0-.449-.136-.808-.408-1.076-.268-.268-.619-.402-1.054-.402-.294 0-.562.076-.804.227a1.578 1.578 0 0 0-.578.628 1.97 1.97 0 0 0-.215.94v5.29h-2.05Zm18.484.17c-.872 0-1.626-.181-2.26-.543a3.688 3.688 0 0 1-1.456-1.552c-.339-.672-.509-1.463-.509-2.373 0-.895.17-1.681.509-2.357a3.86 3.86 0 0 1 1.439-1.585c.616-.382 1.339-.572 2.169-.572.536 0 1.042.086 1.518.26.48.17.903.434 1.269.793.37.359.661.816.872 1.371.211.551.317 1.208.317 1.971v.628h-7.13v-1.382h5.165a2.206 2.206 0 0 0-.255-1.047 1.844 1.844 0 0 0-.697-.731 1.95 1.95 0 0 0-1.03-.266c-.42 0-.788.102-1.105.306-.317.2-.564.464-.742.792a2.295 2.295 0 0 0-.266 1.071v1.206c0 .506.093.94.278 1.303.185.359.443.634.775.827.333.189.722.283 1.167.283.298 0 .568-.041.81-.125.242-.086.451-.213.629-.379a1.59 1.59 0 0 0 .402-.617l1.914.215a2.98 2.98 0 0 1-.691 1.325 3.356 3.356 0 0 1-1.291.872c-.525.204-1.125.306-1.801.306Z" />
        <path fill="color(display-p3 .8 .8 .8)"
          d="M342.036 170.986h-1.472l4.259-11.599h1.45l4.259 11.599h-1.472l-3.467-9.764h-.09l-3.467 9.764Zm.544-4.531h5.936v1.246h-5.936v-1.246Zm10.078 4.531v-11.599h1.336v4.282h.114c.098-.151.234-.344.408-.578.177-.238.43-.449.758-.634.333-.189.782-.283 1.348-.283.733 0 1.379.183 1.937.549.559.366.995.885 1.309 1.557.313.673.47 1.465.47 2.379 0 .922-.157 1.72-.47 2.396-.314.672-.748 1.193-1.303 1.563-.555.366-1.195.55-1.92.55-.559 0-1.006-.093-1.342-.278-.336-.189-.595-.402-.776-.64a8.822 8.822 0 0 1-.419-.6h-.159v1.336h-1.291Zm1.314-4.349c0 .657.096 1.236.289 1.738.192.499.474.89.844 1.173.37.279.823.419 1.359.419.559 0 1.025-.147 1.399-.442.377-.298.661-.698.849-1.201a4.7 4.7 0 0 0 .289-1.687c0-.612-.094-1.163-.283-1.654-.185-.495-.466-.886-.844-1.173-.374-.29-.844-.436-1.41-.436-.544 0-1.001.138-1.371.414-.37.272-.649.653-.838 1.144-.189.487-.283 1.055-.283 1.705Zm12.264 4.531c-.786 0-1.475-.187-2.068-.561-.589-.374-1.049-.897-1.382-1.569-.328-.672-.492-1.457-.492-2.356 0-.906.164-1.697.492-2.373.333-.676.793-1.201 1.382-1.575.593-.374 1.282-.56 2.068-.56.785 0 1.472.186 2.061.56.593.374 1.054.899 1.382 1.575.332.676.499 1.467.499 2.373 0 .899-.167 1.684-.499 2.356a3.755 3.755 0 0 1-1.382 1.569c-.589.374-1.276.561-2.061.561Zm0-1.201c.596 0 1.087-.153 1.472-.459.385-.306.67-.708.855-1.206a4.624 4.624 0 0 0 .278-1.62 4.67 4.67 0 0 0-.278-1.626 2.736 2.736 0 0 0-.855-1.217c-.385-.31-.876-.465-1.472-.465-.597 0-1.088.155-1.473.465-.385.309-.67.715-.855 1.217a4.67 4.67 0 0 0-.278 1.626c0 .581.093 1.121.278 1.62.185.498.47.9.855 1.206.385.306.876.459 1.473.459Zm11.783-2.537v-5.143h1.337v8.699h-1.337v-1.472h-.09a2.853 2.853 0 0 1-.952 1.127c-.43.306-.974.459-1.631.459-.544 0-1.027-.119-1.45-.357-.423-.242-.755-.604-.997-1.088-.241-.487-.362-1.1-.362-1.84v-5.528h1.337v5.437c0 .634.177 1.14.532 1.518.359.377.815.566 1.371.566.332 0 .67-.085 1.013-.255.348-.17.638-.43.873-.781.237-.351.356-.799.356-1.342Zm7.888-5.143v1.133h-4.509v-1.133h4.509Zm-3.195-2.084h1.337v8.291c0 .378.055.661.164.85a.854.854 0 0 0 .431.374c.177.06.364.09.56.09.147 0 .268-.007.363-.022l.226-.046.272 1.201a2.739 2.739 0 0 1-.379.102 2.788 2.788 0 0 1-.618.057 2.7 2.7 0 0 1-1.11-.244 2.204 2.204 0 0 1-.895-.742c-.234-.332-.351-.751-.351-1.257v-8.654Zm18.122-.816h1.405v7.68c0 .793-.187 1.501-.561 2.124a3.93 3.93 0 0 1-1.569 1.467c-.676.355-1.469.532-2.379.532-.91 0-1.703-.177-2.378-.532a3.972 3.972 0 0 1-1.575-1.467c-.37-.623-.555-1.331-.555-2.124v-7.68h1.405v7.567c0 .566.124 1.07.373 1.512.25.438.605.783 1.065 1.036.465.25 1.02.374 1.665.374.646 0 1.201-.124 1.665-.374.465-.253.82-.598 1.065-1.036.249-.442.374-.946.374-1.512v-7.567Zm10.51 4.848-1.201.34a2.238 2.238 0 0 0-.334-.583 1.618 1.618 0 0 0-.589-.476c-.25-.125-.569-.187-.958-.187-.532 0-.976.123-1.331.368-.351.242-.526.549-.526.923 0 .333.121.595.362.788.242.192.619.353 1.133.481l1.291.317c.778.189 1.358.478 1.739.867.381.385.572.881.572 1.489 0 .499-.143.944-.43 1.337-.284.393-.68.702-1.19.929-.509.226-1.102.34-1.778.34-.887 0-1.622-.193-2.203-.578-.582-.385-.95-.948-1.105-1.688l1.269-.317c.121.468.349.819.685 1.053.34.234.784.352 1.331.352.623 0 1.118-.133 1.484-.397.37-.268.555-.589.555-.963 0-.302-.106-.555-.317-.759-.211-.207-.536-.362-.974-.464l-1.45-.34c-.797-.189-1.382-.481-1.756-.878-.37-.4-.555-.9-.555-1.501 0-.491.138-.925.414-1.302a2.812 2.812 0 0 1 1.138-.89c.483-.215 1.031-.322 1.642-.322.861 0 1.537.188 2.028.566.495.378.846.876 1.054 1.495Z" />
      </g>
    </g>
  </g>
  <defs>
    <clipPath id="a">
      <path fill="#fff" d="M0 0h384v216H0z" />
    </clipPath>
    <clipPath id="c">
      <path fill="#fff" d="M32 44c0-6.627 5.373-12 12-12h1588v46.667H32V44Z" />
    </clipPath>
    <clipPath id="d">
      <path fill="#fff" d="M128.667 40.889h280v37.778h-280z" />
    </clipPath>
    <clipPath id="e">
      <path fill="#fff" d="M32 119.778h1600v800H32z" />
    </clipPath>
    <filter id="b" width="1706.67" height="994.444" x="-21.333" y="-3.556" color-interpolation-filters="sRGB"
      filterUnits="userSpaceOnUse">
      <feFlood flood-opacity="0" result="BackgroundImageFix" />
      <feColorMatrix in="SourceAlpha" result="hardAlpha" values="0 0 0 0 0 0 0 0 0 0 0 0 0 0 0 0 0 0 127 0" />
      <feOffset dy="17.778" />
      <feGaussianBlur stdDeviation="26.667" />
      <feComposite in2="hardAlpha" operator="out" />
      <feColorMatrix values="0 0 0 0 0 0 0 0 0 0 0 0 0 0 0 0 0 0 0.5 0" />
      <feBlend in2="BackgroundImageFix" result="effect1_dropShadow_53_37" />
      <feBlend in="SourceGraphic" in2="effect1_dropShadow_53_37" result="shape" />
    </filter>
  </defs>
</svg>