<svg width="393" height="486" viewBox="0 0 393 486" fill="none" xmlns="http://www.w3.org/2000/svg">
<path fill-rule="evenodd" clip-rule="evenodd" d="M13.7273 18.2273C13.7273 19.4574 12.7301 20.4545 11.5 20.4545C10.2699 20.4545 9.27273 19.4574 9.27273 18.2273C9.27273 16.9972 10.2699 16 11.5 16C12.7301 16 13.7273 16.9972 13.7273 18.2273ZM13.7273 34.7727C13.7273 36.0028 12.7301 37 11.5 37C10.2699 37 9.27273 36.0028 9.27273 34.7727C9.27273 33.5426 10.2699 32.5455 11.5 32.5455C12.7301 32.5455 13.7273 33.5426 13.7273 34.7727ZM3.22727 28.7273C4.45736 28.7273 5.45455 27.7301 5.45455 26.5C5.45455 25.2699 4.45736 24.2727 3.22727 24.2727C1.99718 24.2727 1 25.2699 1 26.5C1 27.7301 1.99718 28.7273 3.22727 28.7273ZM22 26.5C22 27.7301 21.0028 28.7273 19.7727 28.7273C18.5426 28.7273 17.5455 27.7301 17.5455 26.5C17.5455 25.2699 18.5426 24.2727 19.7727 24.2727C21.0028 24.2727 22 25.2699 22 26.5ZM87.7273 18.2273C87.7273 19.4574 86.7301 20.4545 85.5 20.4545C84.2699 20.4545 83.2727 19.4574 83.2727 18.2273C83.2727 16.9972 84.2699 16 85.5 16C86.7301 16 87.7273 16.9972 87.7273 18.2273ZM87.7273 34.7727C87.7273 36.0028 86.7301 37 85.5 37C84.2699 37 83.2727 36.0028 83.2727 34.7727C83.2727 33.5426 84.2699 32.5455 85.5 32.5455C86.7301 32.5455 87.7273 33.5426 87.7273 34.7727ZM77.2273 28.7273C78.4574 28.7273 79.4545 27.7301 79.4545 26.5C79.4545 25.2699 78.4574 24.2727 77.2273 24.2727C75.9972 24.2727 75 25.2699 75 26.5C75 27.7301 75.9972 28.7273 77.2273 28.7273ZM96 26.5C96 27.7301 95.0028 28.7273 93.7727 28.7273C92.5426 28.7273 91.5455 27.7301 91.5455 26.5C91.5455 25.2699 92.5426 24.2727 93.7727 24.2727C95.0028 24.2727 96 25.2699 96 26.5ZM159.5 20.4545C160.73 20.4545 161.727 19.4574 161.727 18.2273C161.727 16.9972 160.73 16 159.5 16C158.27 16 157.273 16.9972 157.273 18.2273C157.273 19.4574 158.27 20.4545 159.5 20.4545ZM159.5 37C160.73 37 161.727 36.0028 161.727 34.7727C161.727 33.5426 160.73 32.5455 159.5 32.5455C158.27 32.5455 157.273 33.5426 157.273 34.7727C157.273 36.0028 158.27 37 159.5 37ZM153.455 26.5C153.455 27.7301 152.457 28.7273 151.227 28.7273C149.997 28.7273 149 27.7301 149 26.5C149 25.2699 149.997 24.2727 151.227 24.2727C152.457 24.2727 153.455 25.2699 153.455 26.5ZM167.773 28.7273C169.003 28.7273 170 27.7301 170 26.5C170 25.2699 169.003 24.2727 167.773 24.2727C166.543 24.2727 165.545 25.2699 165.545 26.5C165.545 27.7301 166.543 28.7273 167.773 28.7273ZM235.727 18.2273C235.727 19.4574 234.73 20.4545 233.5 20.4545C232.27 20.4545 231.273 19.4574 231.273 18.2273C231.273 16.9972 232.27 16 233.5 16C234.73 16 235.727 16.9972 235.727 18.2273ZM235.727 34.7727C235.727 36.0028 234.73 37 233.5 37C232.27 37 231.273 36.0028 231.273 34.7727C231.273 33.5426 232.27 32.5455 233.5 32.5455C234.73 32.5455 235.727 33.5426 235.727 34.7727ZM225.227 28.7273C226.457 28.7273 227.455 27.7301 227.455 26.5C227.455 25.2699 226.457 24.2727 225.227 24.2727C223.997 24.2727 223 25.2699 223 26.5C223 27.7301 223.997 28.7273 225.227 28.7273ZM244 26.5C244 27.7301 243.003 28.7273 241.773 28.7273C240.543 28.7273 239.545 27.7301 239.545 26.5C239.545 25.2699 240.543 24.2727 241.773 24.2727C243.003 24.2727 244 25.2699 244 26.5ZM307.5 20.4545C308.73 20.4545 309.727 19.4574 309.727 18.2273C309.727 16.9972 308.73 16 307.5 16C306.27 16 305.273 16.9972 305.273 18.2273C305.273 19.4574 306.27 20.4545 307.5 20.4545ZM307.5 37C308.73 37 309.727 36.0028 309.727 34.7727C309.727 33.5426 308.73 32.5455 307.5 32.5455C306.27 32.5455 305.273 33.5426 305.273 34.7727C305.273 36.0028 306.27 37 307.5 37ZM301.455 26.5C301.455 27.7301 300.457 28.7273 299.227 28.7273C297.997 28.7273 297 27.7301 297 26.5C297 25.2699 297.997 24.2727 299.227 24.2727C300.457 24.2727 301.455 25.2699 301.455 26.5ZM315.773 28.7273C317.003 28.7273 318 27.7301 318 26.5C318 25.2699 317.003 24.2727 315.773 24.2727C314.543 24.2727 313.545 25.2699 313.545 26.5C313.545 27.7301 314.543 28.7273 315.773 28.7273ZM383.727 18.2273C383.727 19.4574 382.73 20.4545 381.5 20.4545C380.27 20.4545 379.273 19.4574 379.273 18.2273C379.273 16.9972 380.27 16 381.5 16C382.73 16 383.727 16.9972 383.727 18.2273ZM383.727 34.7727C383.727 36.0028 382.73 37 381.5 37C380.27 37 379.273 36.0028 379.273 34.7727C379.273 33.5426 380.27 32.5455 381.5 32.5455C382.73 32.5455 383.727 33.5426 383.727 34.7727ZM373.227 28.7273C374.457 28.7273 375.455 27.7301 375.455 26.5C375.455 25.2699 374.457 24.2727 373.227 24.2727C371.997 24.2727 371 25.2699 371 26.5C371 27.7301 371.997 28.7273 373.227 28.7273ZM392 26.5C392 27.7301 391.003 28.7273 389.773 28.7273C388.543 28.7273 387.545 27.7301 387.545 26.5C387.545 25.2699 388.543 24.2727 389.773 24.2727C391.003 24.2727 392 25.2699 392 26.5ZM48.5 57.4545C49.7301 57.4545 50.7273 56.4574 50.7273 55.2273C50.7273 53.9972 49.7301 53 48.5 53C47.2699 53 46.2727 53.9972 46.2727 55.2273C46.2727 56.4574 47.2699 57.4545 48.5 57.4545ZM48.5 74C49.7301 74 50.7273 73.0028 50.7273 71.7727C50.7273 70.5426 49.7301 69.5455 48.5 69.5455C47.2699 69.5455 46.2727 70.5426 46.2727 71.7727C46.2727 73.0028 47.2699 74 48.5 74ZM42.4545 63.5C42.4545 64.7301 41.4574 65.7273 40.2273 65.7273C38.9972 65.7273 38 64.7301 38 63.5C38 62.2699 38.9972 61.2727 40.2273 61.2727C41.4574 61.2727 42.4545 62.2699 42.4545 63.5ZM56.7727 65.7273C58.0028 65.7273 59 64.7301 59 63.5C59 62.2699 58.0028 61.2727 56.7727 61.2727C55.5426 61.2727 54.5455 62.2699 54.5455 63.5C54.5455 64.7301 55.5426 65.7273 56.7727 65.7273ZM122.5 57.4545C123.73 57.4545 124.727 56.4574 124.727 55.2273C124.727 53.9972 123.73 53 122.5 53C121.27 53 120.273 53.9972 120.273 55.2273C120.273 56.4574 121.27 57.4545 122.5 57.4545ZM122.5 74C123.73 74 124.727 73.0028 124.727 71.7727C124.727 70.5426 123.73 69.5455 122.5 69.5455C121.27 69.5455 120.273 70.5426 120.273 71.7727C120.273 73.0028 121.27 74 122.5 74ZM116.455 63.5C116.455 64.7301 115.457 65.7273 114.227 65.7273C112.997 65.7273 112 64.7301 112 63.5C112 62.2699 112.997 61.2727 114.227 61.2727C115.457 61.2727 116.455 62.2699 116.455 63.5ZM130.773 65.7273C132.003 65.7273 133 64.7301 133 63.5C133 62.2699 132.003 61.2727 130.773 61.2727C129.543 61.2727 128.545 62.2699 128.545 63.5C128.545 64.7301 129.543 65.7273 130.773 65.7273ZM198.727 55.2273C198.727 56.4574 197.73 57.4545 196.5 57.4545C195.27 57.4545 194.273 56.4574 194.273 55.2273C194.273 53.9972 195.27 53 196.5 53C197.73 53 198.727 53.9972 198.727 55.2273ZM198.727 71.7727C198.727 73.0028 197.73 74 196.5 74C195.27 74 194.273 73.0028 194.273 71.7727C194.273 70.5426 195.27 69.5455 196.5 69.5455C197.73 69.5455 198.727 70.5426 198.727 71.7727ZM188.227 65.7273C189.457 65.7273 190.455 64.7301 190.455 63.5C190.455 62.2699 189.457 61.2727 188.227 61.2727C186.997 61.2727 186 62.2699 186 63.5C186 64.7301 186.997 65.7273 188.227 65.7273ZM207 63.5C207 64.7301 206.003 65.7273 204.773 65.7273C203.543 65.7273 202.545 64.7301 202.545 63.5C202.545 62.2699 203.543 61.2727 204.773 61.2727C206.003 61.2727 207 62.2699 207 63.5ZM270.5 57.4545C271.73 57.4545 272.727 56.4574 272.727 55.2273C272.727 53.9972 271.73 53 270.5 53C269.27 53 268.273 53.9972 268.273 55.2273C268.273 56.4574 269.27 57.4545 270.5 57.4545ZM270.5 74C271.73 74 272.727 73.0028 272.727 71.7727C272.727 70.5426 271.73 69.5455 270.5 69.5455C269.27 69.5455 268.273 70.5426 268.273 71.7727C268.273 73.0028 269.27 74 270.5 74ZM264.455 63.5C264.455 64.7301 263.457 65.7273 262.227 65.7273C260.997 65.7273 260 64.7301 260 63.5C260 62.2699 260.997 61.2727 262.227 61.2727C263.457 61.2727 264.455 62.2699 264.455 63.5ZM278.773 65.7273C280.003 65.7273 281 64.7301 281 63.5C281 62.2699 280.003 61.2727 278.773 61.2727C277.543 61.2727 276.545 62.2699 276.545 63.5C276.545 64.7301 277.543 65.7273 278.773 65.7273ZM346.727 55.2273C346.727 56.4574 345.73 57.4545 344.5 57.4545C343.27 57.4545 342.273 56.4574 342.273 55.2273C342.273 53.9972 343.27 53 344.5 53C345.73 53 346.727 53.9972 346.727 55.2273ZM346.727 71.7727C346.727 73.0028 345.73 74 344.5 74C343.27 74 342.273 73.0028 342.273 71.7727C342.273 70.5426 343.27 69.5455 344.5 69.5455C345.73 69.5455 346.727 70.5426 346.727 71.7727ZM336.227 65.7273C337.457 65.7273 338.455 64.7301 338.455 63.5C338.455 62.2699 337.457 61.2727 336.227 61.2727C334.997 61.2727 334 62.2699 334 63.5C334 64.7301 334.997 65.7273 336.227 65.7273ZM355 63.5C355 64.7301 354.003 65.7273 352.773 65.7273C351.543 65.7273 350.545 64.7301 350.545 63.5C350.545 62.2699 351.543 61.2727 352.773 61.2727C354.003 61.2727 355 62.2699 355 63.5ZM13.7273 92.2273C13.7273 93.4574 12.7301 94.4545 11.5 94.4545C10.2699 94.4545 9.27273 93.4574 9.27273 92.2273C9.27273 90.9972 10.2699 90 11.5 90C12.7301 90 13.7273 90.9972 13.7273 92.2273ZM13.7273 108.773C13.7273 110.003 12.7301 111 11.5 111C10.2699 111 9.27273 110.003 9.27273 108.773C9.27273 107.543 10.2699 106.545 11.5 106.545C12.7301 106.545 13.7273 107.543 13.7273 108.773ZM3.22727 102.727C4.45736 102.727 5.45455 101.73 5.45455 100.5C5.45455 99.2699 4.45736 98.2727 3.22727 98.2727C1.99718 98.2727 1 99.2699 1 100.5C1 101.73 1.99718 102.727 3.22727 102.727ZM22 100.5C22 101.73 21.0028 102.727 19.7727 102.727C18.5426 102.727 17.5455 101.73 17.5455 100.5C17.5455 99.2699 18.5426 98.2727 19.7727 98.2727C21.0028 98.2727 22 99.2699 22 100.5ZM87.7273 92.2273C87.7273 93.4574 86.7301 94.4545 85.5 94.4545C84.2699 94.4545 83.2727 93.4574 83.2727 92.2273C83.2727 90.9972 84.2699 90 85.5 90C86.7301 90 87.7273 90.9972 87.7273 92.2273ZM87.7273 108.773C87.7273 110.003 86.7301 111 85.5 111C84.2699 111 83.2727 110.003 83.2727 108.773C83.2727 107.543 84.2699 106.545 85.5 106.545C86.7301 106.545 87.7273 107.543 87.7273 108.773ZM77.2273 102.727C78.4574 102.727 79.4545 101.73 79.4545 100.5C79.4545 99.2699 78.4574 98.2727 77.2273 98.2727C75.9972 98.2727 75 99.2699 75 100.5C75 101.73 75.9972 102.727 77.2273 102.727ZM96 100.5C96 101.73 95.0028 102.727 93.7727 102.727C92.5426 102.727 91.5455 101.73 91.5455 100.5C91.5455 99.2699 92.5426 98.2727 93.7727 98.2727C95.0028 98.2727 96 99.2699 96 100.5ZM48.5 94.4545C49.7301 94.4545 50.7273 93.4574 50.7273 92.2273C50.7273 90.9972 49.7301 90 48.5 90C47.2699 90 46.2727 90.9972 46.2727 92.2273C46.2727 93.4574 47.2699 94.4545 48.5 94.4545ZM48.5 111C49.7301 111 50.7273 110.003 50.7273 108.773C50.7273 107.543 49.7301 106.545 48.5 106.545C47.2699 106.545 46.2727 107.543 46.2727 108.773C46.2727 110.003 47.2699 111 48.5 111ZM42.4545 100.5C42.4545 101.73 41.4574 102.727 40.2273 102.727C38.9972 102.727 38 101.73 38 100.5C38 99.2699 38.9972 98.2727 40.2273 98.2727C41.4574 98.2727 42.4545 99.2699 42.4545 100.5ZM56.7727 102.727C58.0028 102.727 59 101.73 59 100.5C59 99.2699 58.0028 98.2727 56.7727 98.2727C55.5426 98.2727 54.5455 99.2699 54.5455 100.5C54.5455 101.73 55.5426 102.727 56.7727 102.727ZM161.727 92.2273C161.727 93.4574 160.73 94.4545 159.5 94.4545C158.27 94.4545 157.273 93.4574 157.273 92.2273C157.273 90.9972 158.27 90 159.5 90C160.73 90 161.727 90.9972 161.727 92.2273ZM161.727 108.773C161.727 110.003 160.73 111 159.5 111C158.27 111 157.273 110.003 157.273 108.773C157.273 107.543 158.27 106.545 159.5 106.545C160.73 106.545 161.727 107.543 161.727 108.773ZM151.227 102.727C152.457 102.727 153.455 101.73 153.455 100.5C153.455 99.2699 152.457 98.2727 151.227 98.2727C149.997 98.2727 149 99.2699 149 100.5C149 101.73 149.997 102.727 151.227 102.727ZM170 100.5C170 101.73 169.003 102.727 167.773 102.727C166.543 102.727 165.545 101.73 165.545 100.5C165.545 99.2699 166.543 98.2727 167.773 98.2727C169.003 98.2727 170 99.2699 170 100.5ZM122.5 94.4545C123.73 94.4545 124.727 93.4574 124.727 92.2273C124.727 90.9972 123.73 90 122.5 90C121.27 90 120.273 90.9972 120.273 92.2273C120.273 93.4574 121.27 94.4545 122.5 94.4545ZM122.5 111C123.73 111 124.727 110.003 124.727 108.773C124.727 107.543 123.73 106.545 122.5 106.545C121.27 106.545 120.273 107.543 120.273 108.773C120.273 110.003 121.27 111 122.5 111ZM116.455 100.5C116.455 101.73 115.457 102.727 114.227 102.727C112.997 102.727 112 101.73 112 100.5C112 99.2699 112.997 98.2727 114.227 98.2727C115.457 98.2727 116.455 99.2699 116.455 100.5ZM130.773 102.727C132.003 102.727 133 101.73 133 100.5C133 99.2699 132.003 98.2727 130.773 98.2727C129.543 98.2727 128.545 99.2699 128.545 100.5C128.545 101.73 129.543 102.727 130.773 102.727ZM235.727 92.2273C235.727 93.4574 234.73 94.4545 233.5 94.4545C232.27 94.4545 231.273 93.4574 231.273 92.2273C231.273 90.9972 232.27 90 233.5 90C234.73 90 235.727 90.9972 235.727 92.2273ZM235.727 108.773C235.727 110.003 234.73 111 233.5 111C232.27 111 231.273 110.003 231.273 108.773C231.273 107.543 232.27 106.545 233.5 106.545C234.73 106.545 235.727 107.543 235.727 108.773ZM225.227 102.727C226.457 102.727 227.455 101.73 227.455 100.5C227.455 99.2699 226.457 98.2727 225.227 98.2727C223.997 98.2727 223 99.2699 223 100.5C223 101.73 223.997 102.727 225.227 102.727ZM244 100.5C244 101.73 243.003 102.727 241.773 102.727C240.543 102.727 239.545 101.73 239.545 100.5C239.545 99.2699 240.543 98.2727 241.773 98.2727C243.003 98.2727 244 99.2699 244 100.5ZM196.5 94.4545C197.73 94.4545 198.727 93.4574 198.727 92.2273C198.727 90.9972 197.73 90 196.5 90C195.27 90 194.273 90.9972 194.273 92.2273C194.273 93.4574 195.27 94.4545 196.5 94.4545ZM196.5 111C197.73 111 198.727 110.003 198.727 108.773C198.727 107.543 197.73 106.545 196.5 106.545C195.27 106.545 194.273 107.543 194.273 108.773C194.273 110.003 195.27 111 196.5 111ZM190.455 100.5C190.455 101.73 189.457 102.727 188.227 102.727C186.997 102.727 186 101.73 186 100.5C186 99.2699 186.997 98.2727 188.227 98.2727C189.457 98.2727 190.455 99.2699 190.455 100.5ZM204.773 102.727C206.003 102.727 207 101.73 207 100.5C207 99.2699 206.003 98.2727 204.773 98.2727C203.543 98.2727 202.545 99.2699 202.545 100.5C202.545 101.73 203.543 102.727 204.773 102.727ZM309.727 92.2273C309.727 93.4574 308.73 94.4545 307.5 94.4545C306.27 94.4545 305.273 93.4574 305.273 92.2273C305.273 90.9972 306.27 90 307.5 90C308.73 90 309.727 90.9972 309.727 92.2273ZM309.727 108.773C309.727 110.003 308.73 111 307.5 111C306.27 111 305.273 110.003 305.273 108.773C305.273 107.543 306.27 106.545 307.5 106.545C308.73 106.545 309.727 107.543 309.727 108.773ZM299.227 102.727C300.457 102.727 301.455 101.73 301.455 100.5C301.455 99.2699 300.457 98.2727 299.227 98.2727C297.997 98.2727 297 99.2699 297 100.5C297 101.73 297.997 102.727 299.227 102.727ZM318 100.5C318 101.73 317.003 102.727 315.773 102.727C314.543 102.727 313.545 101.73 313.545 100.5C313.545 99.2699 314.543 98.2727 315.773 98.2727C317.003 98.2727 318 99.2699 318 100.5ZM270.5 94.4545C271.73 94.4545 272.727 93.4574 272.727 92.2273C272.727 90.9972 271.73 90 270.5 90C269.27 90 268.273 90.9972 268.273 92.2273C268.273 93.4574 269.27 94.4545 270.5 94.4545ZM270.5 111C271.73 111 272.727 110.003 272.727 108.773C272.727 107.543 271.73 106.545 270.5 106.545C269.27 106.545 268.273 107.543 268.273 108.773C268.273 110.003 269.27 111 270.5 111ZM264.455 100.5C264.455 101.73 263.457 102.727 262.227 102.727C260.997 102.727 260 101.73 260 100.5C260 99.2699 260.997 98.2727 262.227 98.2727C263.457 98.2727 264.455 99.2699 264.455 100.5ZM278.773 102.727C280.003 102.727 281 101.73 281 100.5C281 99.2699 280.003 98.2727 278.773 98.2727C277.543 98.2727 276.545 99.2699 276.545 100.5C276.545 101.73 277.543 102.727 278.773 102.727ZM383.727 92.2273C383.727 93.4574 382.73 94.4545 381.5 94.4545C380.27 94.4545 379.273 93.4574 379.273 92.2273C379.273 90.9972 380.27 90 381.5 90C382.73 90 383.727 90.9972 383.727 92.2273ZM383.727 108.773C383.727 110.003 382.73 111 381.5 111C380.27 111 379.273 110.003 379.273 108.773C379.273 107.543 380.27 106.545 381.5 106.545C382.73 106.545 383.727 107.543 383.727 108.773ZM373.227 102.727C374.457 102.727 375.455 101.73 375.455 100.5C375.455 99.2699 374.457 98.2727 373.227 98.2727C371.997 98.2727 371 99.2699 371 100.5C371 101.73 371.997 102.727 373.227 102.727ZM392 100.5C392 101.73 391.003 102.727 389.773 102.727C388.543 102.727 387.545 101.73 387.545 100.5C387.545 99.2699 388.543 98.2727 389.773 98.2727C391.003 98.2727 392 99.2699 392 100.5ZM344.5 94.4545C345.73 94.4545 346.727 93.4574 346.727 92.2273C346.727 90.9972 345.73 90 344.5 90C343.27 90 342.273 90.9972 342.273 92.2273C342.273 93.4574 343.27 94.4545 344.5 94.4545ZM344.5 111C345.73 111 346.727 110.003 346.727 108.773C346.727 107.543 345.73 106.545 344.5 106.545C343.27 106.545 342.273 107.543 342.273 108.773C342.273 110.003 343.27 111 344.5 111ZM338.455 100.5C338.455 101.73 337.457 102.727 336.227 102.727C334.997 102.727 334 101.73 334 100.5C334 99.2699 334.997 98.2727 336.227 98.2727C337.457 98.2727 338.455 99.2699 338.455 100.5ZM352.773 102.727C354.003 102.727 355 101.73 355 100.5C355 99.2699 354.003 98.2727 352.773 98.2727C351.543 98.2727 350.545 99.2699 350.545 100.5C350.545 101.73 351.543 102.727 352.773 102.727ZM13.7273 129.227C13.7273 130.457 12.7301 131.455 11.5 131.455C10.2699 131.455 9.27273 130.457 9.27273 129.227C9.27273 127.997 10.2699 127 11.5 127C12.7301 127 13.7273 127.997 13.7273 129.227ZM13.7273 145.773C13.7273 147.003 12.7301 148 11.5 148C10.2699 148 9.27273 147.003 9.27273 145.773C9.27273 144.543 10.2699 143.545 11.5 143.545C12.7301 143.545 13.7273 144.543 13.7273 145.773ZM3.22727 139.727C4.45736 139.727 5.45455 138.73 5.45455 137.5C5.45455 136.27 4.45736 135.273 3.22727 135.273C1.99718 135.273 1 136.27 1 137.5C1 138.73 1.99718 139.727 3.22727 139.727ZM22 137.5C22 138.73 21.0028 139.727 19.7727 139.727C18.5426 139.727 17.5455 138.73 17.5455 137.5C17.5455 136.27 18.5426 135.273 19.7727 135.273C21.0028 135.273 22 136.27 22 137.5ZM87.7273 129.227C87.7273 130.457 86.7301 131.455 85.5 131.455C84.2699 131.455 83.2727 130.457 83.2727 129.227C83.2727 127.997 84.2699 127 85.5 127C86.7301 127 87.7273 127.997 87.7273 129.227ZM87.7273 145.773C87.7273 147.003 86.7301 148 85.5 148C84.2699 148 83.2727 147.003 83.2727 145.773C83.2727 144.543 84.2699 143.545 85.5 143.545C86.7301 143.545 87.7273 144.543 87.7273 145.773ZM77.2273 139.727C78.4574 139.727 79.4545 138.73 79.4545 137.5C79.4545 136.27 78.4574 135.273 77.2273 135.273C75.9972 135.273 75 136.27 75 137.5C75 138.73 75.9972 139.727 77.2273 139.727ZM96 137.5C96 138.73 95.0028 139.727 93.7727 139.727C92.5426 139.727 91.5455 138.73 91.5455 137.5C91.5455 136.27 92.5426 135.273 93.7727 135.273C95.0028 135.273 96 136.27 96 137.5ZM159.5 131.455C160.73 131.455 161.727 130.457 161.727 129.227C161.727 127.997 160.73 127 159.5 127C158.27 127 157.273 127.997 157.273 129.227C157.273 130.457 158.27 131.455 159.5 131.455ZM159.5 148C160.73 148 161.727 147.003 161.727 145.773C161.727 144.543 160.73 143.545 159.5 143.545C158.27 143.545 157.273 144.543 157.273 145.773C157.273 147.003 158.27 148 159.5 148ZM153.455 137.5C153.455 138.73 152.457 139.727 151.227 139.727C149.997 139.727 149 138.73 149 137.5C149 136.27 149.997 135.273 151.227 135.273C152.457 135.273 153.455 136.27 153.455 137.5ZM167.773 139.727C169.003 139.727 170 138.73 170 137.5C170 136.27 169.003 135.273 167.773 135.273C166.543 135.273 165.545 136.27 165.545 137.5C165.545 138.73 166.543 139.727 167.773 139.727ZM235.727 129.227C235.727 130.457 234.73 131.455 233.5 131.455C232.27 131.455 231.273 130.457 231.273 129.227C231.273 127.997 232.27 127 233.5 127C234.73 127 235.727 127.997 235.727 129.227ZM235.727 145.773C235.727 147.003 234.73 148 233.5 148C232.27 148 231.273 147.003 231.273 145.773C231.273 144.543 232.27 143.545 233.5 143.545C234.73 143.545 235.727 144.543 235.727 145.773ZM225.227 139.727C226.457 139.727 227.455 138.73 227.455 137.5C227.455 136.27 226.457 135.273 225.227 135.273C223.997 135.273 223 136.27 223 137.5C223 138.73 223.997 139.727 225.227 139.727ZM244 137.5C244 138.73 243.003 139.727 241.773 139.727C240.543 139.727 239.545 138.73 239.545 137.5C239.545 136.27 240.543 135.273 241.773 135.273C243.003 135.273 244 136.27 244 137.5ZM307.5 131.455C308.73 131.455 309.727 130.457 309.727 129.227C309.727 127.997 308.73 127 307.5 127C306.27 127 305.273 127.997 305.273 129.227C305.273 130.457 306.27 131.455 307.5 131.455ZM307.5 148C308.73 148 309.727 147.003 309.727 145.773C309.727 144.543 308.73 143.545 307.5 143.545C306.27 143.545 305.273 144.543 305.273 145.773C305.273 147.003 306.27 148 307.5 148ZM301.455 137.5C301.455 138.73 300.457 139.727 299.227 139.727C297.997 139.727 297 138.73 297 137.5C297 136.27 297.997 135.273 299.227 135.273C300.457 135.273 301.455 136.27 301.455 137.5ZM315.773 139.727C317.003 139.727 318 138.73 318 137.5C318 136.27 317.003 135.273 315.773 135.273C314.543 135.273 313.545 136.27 313.545 137.5C313.545 138.73 314.543 139.727 315.773 139.727ZM383.727 129.227C383.727 130.457 382.73 131.455 381.5 131.455C380.27 131.455 379.273 130.457 379.273 129.227C379.273 127.997 380.27 127 381.5 127C382.73 127 383.727 127.997 383.727 129.227ZM383.727 145.773C383.727 147.003 382.73 148 381.5 148C380.27 148 379.273 147.003 379.273 145.773C379.273 144.543 380.27 143.545 381.5 143.545C382.73 143.545 383.727 144.543 383.727 145.773ZM373.227 139.727C374.457 139.727 375.455 138.73 375.455 137.5C375.455 136.27 374.457 135.273 373.227 135.273C371.997 135.273 371 136.27 371 137.5C371 138.73 371.997 139.727 373.227 139.727ZM392 137.5C392 138.73 391.003 139.727 389.773 139.727C388.543 139.727 387.545 138.73 387.545 137.5C387.545 136.27 388.543 135.273 389.773 135.273C391.003 135.273 392 136.27 392 137.5ZM50.7273 166.227C50.7273 167.457 49.7301 168.455 48.5 168.455C47.2699 168.455 46.2727 167.457 46.2727 166.227C46.2727 164.997 47.2699 164 48.5 164C49.7301 164 50.7273 164.997 50.7273 166.227ZM50.7273 182.773C50.7273 184.003 49.7301 185 48.5 185C47.2699 185 46.2727 184.003 46.2727 182.773C46.2727 181.543 47.2699 180.545 48.5 180.545C49.7301 180.545 50.7273 181.543 50.7273 182.773ZM40.2273 176.727C41.4574 176.727 42.4545 175.73 42.4545 174.5C42.4545 173.27 41.4574 172.273 40.2273 172.273C38.9972 172.273 38 173.27 38 174.5C38 175.73 38.9972 176.727 40.2273 176.727ZM59 174.5C59 175.73 58.0028 176.727 56.7727 176.727C55.5426 176.727 54.5455 175.73 54.5455 174.5C54.5455 173.27 55.5426 172.273 56.7727 172.273C58.0028 172.273 59 173.27 59 174.5ZM124.727 166.227C124.727 167.457 123.73 168.455 122.5 168.455C121.27 168.455 120.273 167.457 120.273 166.227C120.273 164.997 121.27 164 122.5 164C123.73 164 124.727 164.997 124.727 166.227ZM124.727 182.773C124.727 184.003 123.73 185 122.5 185C121.27 185 120.273 184.003 120.273 182.773C120.273 181.543 121.27 180.545 122.5 180.545C123.73 180.545 124.727 181.543 124.727 182.773ZM114.227 176.727C115.457 176.727 116.455 175.73 116.455 174.5C116.455 173.27 115.457 172.273 114.227 172.273C112.997 172.273 112 173.27 112 174.5C112 175.73 112.997 176.727 114.227 176.727ZM133 174.5C133 175.73 132.003 176.727 130.773 176.727C129.543 176.727 128.545 175.73 128.545 174.5C128.545 173.27 129.543 172.273 130.773 172.273C132.003 172.273 133 173.27 133 174.5ZM196.5 168.455C197.73 168.455 198.727 167.457 198.727 166.227C198.727 164.997 197.73 164 196.5 164C195.27 164 194.273 164.997 194.273 166.227C194.273 167.457 195.27 168.455 196.5 168.455ZM196.5 185C197.73 185 198.727 184.003 198.727 182.773C198.727 181.543 197.73 180.545 196.5 180.545C195.27 180.545 194.273 181.543 194.273 182.773C194.273 184.003 195.27 185 196.5 185ZM190.455 174.5C190.455 175.73 189.457 176.727 188.227 176.727C186.997 176.727 186 175.73 186 174.5C186 173.27 186.997 172.273 188.227 172.273C189.457 172.273 190.455 173.27 190.455 174.5ZM204.773 176.727C206.003 176.727 207 175.73 207 174.5C207 173.27 206.003 172.273 204.773 172.273C203.543 172.273 202.545 173.27 202.545 174.5C202.545 175.73 203.543 176.727 204.773 176.727ZM272.727 166.227C272.727 167.457 271.73 168.455 270.5 168.455C269.27 168.455 268.273 167.457 268.273 166.227C268.273 164.997 269.27 164 270.5 164C271.73 164 272.727 164.997 272.727 166.227ZM272.727 182.773C272.727 184.003 271.73 185 270.5 185C269.27 185 268.273 184.003 268.273 182.773C268.273 181.543 269.27 180.545 270.5 180.545C271.73 180.545 272.727 181.543 272.727 182.773ZM262.227 176.727C263.457 176.727 264.455 175.73 264.455 174.5C264.455 173.27 263.457 172.273 262.227 172.273C260.997 172.273 260 173.27 260 174.5C260 175.73 260.997 176.727 262.227 176.727ZM281 174.5C281 175.73 280.003 176.727 278.773 176.727C277.543 176.727 276.545 175.73 276.545 174.5C276.545 173.27 277.543 172.273 278.773 172.273C280.003 172.273 281 173.27 281 174.5ZM344.5 168.455C345.73 168.455 346.727 167.457 346.727 166.227C346.727 164.997 345.73 164 344.5 164C343.27 164 342.273 164.997 342.273 166.227C342.273 167.457 343.27 168.455 344.5 168.455ZM344.5 185C345.73 185 346.727 184.003 346.727 182.773C346.727 181.543 345.73 180.545 344.5 180.545C343.27 180.545 342.273 181.543 342.273 182.773C342.273 184.003 343.27 185 344.5 185ZM338.455 174.5C338.455 175.73 337.457 176.727 336.227 176.727C334.997 176.727 334 175.73 334 174.5C334 173.27 334.997 172.273 336.227 172.273C337.457 172.273 338.455 173.27 338.455 174.5ZM352.773 176.727C354.003 176.727 355 175.73 355 174.5C355 173.27 354.003 172.273 352.773 172.273C351.543 172.273 350.545 173.27 350.545 174.5C350.545 175.73 351.543 176.727 352.773 176.727ZM11.5 205.455C12.7301 205.455 13.7273 204.457 13.7273 203.227C13.7273 201.997 12.7301 201 11.5 201C10.2699 201 9.27273 201.997 9.27273 203.227C9.27273 204.457 10.2699 205.455 11.5 205.455ZM11.5 222C12.7301 222 13.7273 221.003 13.7273 219.773C13.7273 218.543 12.7301 217.545 11.5 217.545C10.2699 217.545 9.27273 218.543 9.27273 219.773C9.27273 221.003 10.2699 222 11.5 222ZM5.45455 211.5C5.45455 212.73 4.45736 213.727 3.22727 213.727C1.99718 213.727 1 212.73 1 211.5C1 210.27 1.99718 209.273 3.22727 209.273C4.45736 209.273 5.45455 210.27 5.45455 211.5ZM19.7727 213.727C21.0028 213.727 22 212.73 22 211.5C22 210.27 21.0028 209.273 19.7727 209.273C18.5426 209.273 17.5455 210.27 17.5455 211.5C17.5455 212.73 18.5426 213.727 19.7727 213.727ZM85.5 205.455C86.7301 205.455 87.7273 204.457 87.7273 203.227C87.7273 201.997 86.7301 201 85.5 201C84.2699 201 83.2727 201.997 83.2727 203.227C83.2727 204.457 84.2699 205.455 85.5 205.455ZM85.5 222C86.7301 222 87.7273 221.003 87.7273 219.773C87.7273 218.543 86.7301 217.545 85.5 217.545C84.2699 217.545 83.2727 218.543 83.2727 219.773C83.2727 221.003 84.2699 222 85.5 222ZM79.4545 211.5C79.4545 212.73 78.4574 213.727 77.2273 213.727C75.9972 213.727 75 212.73 75 211.5C75 210.27 75.9972 209.273 77.2273 209.273C78.4574 209.273 79.4545 210.27 79.4545 211.5ZM93.7727 213.727C95.0028 213.727 96 212.73 96 211.5C96 210.27 95.0028 209.273 93.7727 209.273C92.5426 209.273 91.5455 210.27 91.5455 211.5C91.5455 212.73 92.5426 213.727 93.7727 213.727ZM50.7273 203.227C50.7273 204.457 49.7301 205.455 48.5 205.455C47.2699 205.455 46.2727 204.457 46.2727 203.227C46.2727 201.997 47.2699 201 48.5 201C49.7301 201 50.7273 201.997 50.7273 203.227ZM50.7273 219.773C50.7273 221.003 49.7301 222 48.5 222C47.2699 222 46.2727 221.003 46.2727 219.773C46.2727 218.543 47.2699 217.545 48.5 217.545C49.7301 217.545 50.7273 218.543 50.7273 219.773ZM40.2273 213.727C41.4574 213.727 42.4545 212.73 42.4545 211.5C42.4545 210.27 41.4574 209.273 40.2273 209.273C38.9972 209.273 38 210.27 38 211.5C38 212.73 38.9972 213.727 40.2273 213.727ZM59 211.5C59 212.73 58.0028 213.727 56.7727 213.727C55.5426 213.727 54.5455 212.73 54.5455 211.5C54.5455 210.27 55.5426 209.273 56.7727 209.273C58.0028 209.273 59 210.27 59 211.5ZM159.5 205.455C160.73 205.455 161.727 204.457 161.727 203.227C161.727 201.997 160.73 201 159.5 201C158.27 201 157.273 201.997 157.273 203.227C157.273 204.457 158.27 205.455 159.5 205.455ZM159.5 222C160.73 222 161.727 221.003 161.727 219.773C161.727 218.543 160.73 217.545 159.5 217.545C158.27 217.545 157.273 218.543 157.273 219.773C157.273 221.003 158.27 222 159.5 222ZM153.455 211.5C153.455 212.73 152.457 213.727 151.227 213.727C149.997 213.727 149 212.73 149 211.5C149 210.27 149.997 209.273 151.227 209.273C152.457 209.273 153.455 210.27 153.455 211.5ZM167.773 213.727C169.003 213.727 170 212.73 170 211.5C170 210.27 169.003 209.273 167.773 209.273C166.543 209.273 165.545 210.27 165.545 211.5C165.545 212.73 166.543 213.727 167.773 213.727ZM124.727 203.227C124.727 204.457 123.73 205.455 122.5 205.455C121.27 205.455 120.273 204.457 120.273 203.227C120.273 201.997 121.27 201 122.5 201C123.73 201 124.727 201.997 124.727 203.227ZM124.727 219.773C124.727 221.003 123.73 222 122.5 222C121.27 222 120.273 221.003 120.273 219.773C120.273 218.543 121.27 217.545 122.5 217.545C123.73 217.545 124.727 218.543 124.727 219.773ZM114.227 213.727C115.457 213.727 116.455 212.73 116.455 211.5C116.455 210.27 115.457 209.273 114.227 209.273C112.997 209.273 112 210.27 112 211.5C112 212.73 112.997 213.727 114.227 213.727ZM133 211.5C133 212.73 132.003 213.727 130.773 213.727C129.543 213.727 128.545 212.73 128.545 211.5C128.545 210.27 129.543 209.273 130.773 209.273C132.003 209.273 133 210.27 133 211.5ZM233.5 205.455C234.73 205.455 235.727 204.457 235.727 203.227C235.727 201.997 234.73 201 233.5 201C232.27 201 231.273 201.997 231.273 203.227C231.273 204.457 232.27 205.455 233.5 205.455ZM233.5 222C234.73 222 235.727 221.003 235.727 219.773C235.727 218.543 234.73 217.545 233.5 217.545C232.27 217.545 231.273 218.543 231.273 219.773C231.273 221.003 232.27 222 233.5 222ZM227.455 211.5C227.455 212.73 226.457 213.727 225.227 213.727C223.997 213.727 223 212.73 223 211.5C223 210.27 223.997 209.273 225.227 209.273C226.457 209.273 227.455 210.27 227.455 211.5ZM241.773 213.727C243.003 213.727 244 212.73 244 211.5C244 210.27 243.003 209.273 241.773 209.273C240.543 209.273 239.545 210.27 239.545 211.5C239.545 212.73 240.543 213.727 241.773 213.727ZM198.727 203.227C198.727 204.457 197.73 205.455 196.5 205.455C195.27 205.455 194.273 204.457 194.273 203.227C194.273 201.997 195.27 201 196.5 201C197.73 201 198.727 201.997 198.727 203.227ZM198.727 219.773C198.727 221.003 197.73 222 196.5 222C195.27 222 194.273 221.003 194.273 219.773C194.273 218.543 195.27 217.545 196.5 217.545C197.73 217.545 198.727 218.543 198.727 219.773ZM188.227 213.727C189.457 213.727 190.455 212.73 190.455 211.5C190.455 210.27 189.457 209.273 188.227 209.273C186.997 209.273 186 210.27 186 211.5C186 212.73 186.997 213.727 188.227 213.727ZM207 211.5C207 212.73 206.003 213.727 204.773 213.727C203.543 213.727 202.545 212.73 202.545 211.5C202.545 210.27 203.543 209.273 204.773 209.273C206.003 209.273 207 210.27 207 211.5ZM307.5 205.455C308.73 205.455 309.727 204.457 309.727 203.227C309.727 201.997 308.73 201 307.5 201C306.27 201 305.273 201.997 305.273 203.227C305.273 204.457 306.27 205.455 307.5 205.455ZM307.5 222C308.73 222 309.727 221.003 309.727 219.773C309.727 218.543 308.73 217.545 307.5 217.545C306.27 217.545 305.273 218.543 305.273 219.773C305.273 221.003 306.27 222 307.5 222ZM301.455 211.5C301.455 212.73 300.457 213.727 299.227 213.727C297.997 213.727 297 212.73 297 211.5C297 210.27 297.997 209.273 299.227 209.273C300.457 209.273 301.455 210.27 301.455 211.5ZM315.773 213.727C317.003 213.727 318 212.73 318 211.5C318 210.27 317.003 209.273 315.773 209.273C314.543 209.273 313.545 210.27 313.545 211.5C313.545 212.73 314.543 213.727 315.773 213.727ZM272.727 203.227C272.727 204.457 271.73 205.455 270.5 205.455C269.27 205.455 268.273 204.457 268.273 203.227C268.273 201.997 269.27 201 270.5 201C271.73 201 272.727 201.997 272.727 203.227ZM272.727 219.773C272.727 221.003 271.73 222 270.5 222C269.27 222 268.273 221.003 268.273 219.773C268.273 218.543 269.27 217.545 270.5 217.545C271.73 217.545 272.727 218.543 272.727 219.773ZM262.227 213.727C263.457 213.727 264.455 212.73 264.455 211.5C264.455 210.27 263.457 209.273 262.227 209.273C260.997 209.273 260 210.27 260 211.5C260 212.73 260.997 213.727 262.227 213.727ZM281 211.5C281 212.73 280.003 213.727 278.773 213.727C277.543 213.727 276.545 212.73 276.545 211.5C276.545 210.27 277.543 209.273 278.773 209.273C280.003 209.273 281 210.27 281 211.5ZM381.5 205.455C382.73 205.455 383.727 204.457 383.727 203.227C383.727 201.997 382.73 201 381.5 201C380.27 201 379.273 201.997 379.273 203.227C379.273 204.457 380.27 205.455 381.5 205.455ZM381.5 222C382.73 222 383.727 221.003 383.727 219.773C383.727 218.543 382.73 217.545 381.5 217.545C380.27 217.545 379.273 218.543 379.273 219.773C379.273 221.003 380.27 222 381.5 222ZM375.455 211.5C375.455 212.73 374.457 213.727 373.227 213.727C371.997 213.727 371 212.73 371 211.5C371 210.27 371.997 209.273 373.227 209.273C374.457 209.273 375.455 210.27 375.455 211.5ZM389.773 213.727C391.003 213.727 392 212.73 392 211.5C392 210.27 391.003 209.273 389.773 209.273C388.543 209.273 387.545 210.27 387.545 211.5C387.545 212.73 388.543 213.727 389.773 213.727ZM346.727 203.227C346.727 204.457 345.73 205.455 344.5 205.455C343.27 205.455 342.273 204.457 342.273 203.227C342.273 201.997 343.27 201 344.5 201C345.73 201 346.727 201.997 346.727 203.227ZM346.727 219.773C346.727 221.003 345.73 222 344.5 222C343.27 222 342.273 221.003 342.273 219.773C342.273 218.543 343.27 217.545 344.5 217.545C345.73 217.545 346.727 218.543 346.727 219.773ZM336.227 213.727C337.457 213.727 338.455 212.73 338.455 211.5C338.455 210.27 337.457 209.273 336.227 209.273C334.997 209.273 334 210.27 334 211.5C334 212.73 334.997 213.727 336.227 213.727ZM355 211.5C355 212.73 354.003 213.727 352.773 213.727C351.543 213.727 350.545 212.73 350.545 211.5C350.545 210.27 351.543 209.273 352.773 209.273C354.003 209.273 355 210.27 355 211.5ZM11.5 242.455C12.7301 242.455 13.7273 241.457 13.7273 240.227C13.7273 238.997 12.7301 238 11.5 238C10.2699 238 9.27273 238.997 9.27273 240.227C9.27273 241.457 10.2699 242.455 11.5 242.455ZM11.5 259C12.7301 259 13.7273 258.003 13.7273 256.773C13.7273 255.543 12.7301 254.545 11.5 254.545C10.2699 254.545 9.27273 255.543 9.27273 256.773C9.27273 258.003 10.2699 259 11.5 259ZM5.45455 248.5C5.45455 249.73 4.45736 250.727 3.22727 250.727C1.99718 250.727 1 249.73 1 248.5C1 247.27 1.99718 246.273 3.22727 246.273C4.45736 246.273 5.45455 247.27 5.45455 248.5ZM19.7727 250.727C21.0028 250.727 22 249.73 22 248.5C22 247.27 21.0028 246.273 19.7727 246.273C18.5426 246.273 17.5455 247.27 17.5455 248.5C17.5455 249.73 18.5426 250.727 19.7727 250.727ZM85.5 242.455C86.7301 242.455 87.7273 241.457 87.7273 240.227C87.7273 238.997 86.7301 238 85.5 238C84.2699 238 83.2727 238.997 83.2727 240.227C83.2727 241.457 84.2699 242.455 85.5 242.455ZM85.5 259C86.7301 259 87.7273 258.003 87.7273 256.773C87.7273 255.543 86.7301 254.545 85.5 254.545C84.2699 254.545 83.2727 255.543 83.2727 256.773C83.2727 258.003 84.2699 259 85.5 259ZM79.4545 248.5C79.4545 249.73 78.4574 250.727 77.2273 250.727C75.9972 250.727 75 249.73 75 248.5C75 247.27 75.9972 246.273 77.2273 246.273C78.4574 246.273 79.4545 247.27 79.4545 248.5ZM93.7727 250.727C95.0028 250.727 96 249.73 96 248.5C96 247.27 95.0028 246.273 93.7727 246.273C92.5426 246.273 91.5455 247.27 91.5455 248.5C91.5455 249.73 92.5426 250.727 93.7727 250.727ZM161.727 240.227C161.727 241.457 160.73 242.455 159.5 242.455C158.27 242.455 157.273 241.457 157.273 240.227C157.273 238.997 158.27 238 159.5 238C160.73 238 161.727 238.997 161.727 240.227ZM161.727 256.773C161.727 258.003 160.73 259 159.5 259C158.27 259 157.273 258.003 157.273 256.773C157.273 255.543 158.27 254.545 159.5 254.545C160.73 254.545 161.727 255.543 161.727 256.773ZM151.227 250.727C152.457 250.727 153.455 249.73 153.455 248.5C153.455 247.27 152.457 246.273 151.227 246.273C149.997 246.273 149 247.27 149 248.5C149 249.73 149.997 250.727 151.227 250.727ZM170 248.5C170 249.73 169.003 250.727 167.773 250.727C166.543 250.727 165.545 249.73 165.545 248.5C165.545 247.27 166.543 246.273 167.773 246.273C169.003 246.273 170 247.27 170 248.5ZM233.5 242.455C234.73 242.455 235.727 241.457 235.727 240.227C235.727 238.997 234.73 238 233.5 238C232.27 238 231.273 238.997 231.273 240.227C231.273 241.457 232.27 242.455 233.5 242.455ZM233.5 259C234.73 259 235.727 258.003 235.727 256.773C235.727 255.543 234.73 254.545 233.5 254.545C232.27 254.545 231.273 255.543 231.273 256.773C231.273 258.003 232.27 259 233.5 259ZM227.455 248.5C227.455 249.73 226.457 250.727 225.227 250.727C223.997 250.727 223 249.73 223 248.5C223 247.27 223.997 246.273 225.227 246.273C226.457 246.273 227.455 247.27 227.455 248.5ZM241.773 250.727C243.003 250.727 244 249.73 244 248.5C244 247.27 243.003 246.273 241.773 246.273C240.543 246.273 239.545 247.27 239.545 248.5C239.545 249.73 240.543 250.727 241.773 250.727ZM309.727 240.227C309.727 241.457 308.73 242.455 307.5 242.455C306.27 242.455 305.273 241.457 305.273 240.227C305.273 238.997 306.27 238 307.5 238C308.73 238 309.727 238.997 309.727 240.227ZM309.727 256.773C309.727 258.003 308.73 259 307.5 259C306.27 259 305.273 258.003 305.273 256.773C305.273 255.543 306.27 254.545 307.5 254.545C308.73 254.545 309.727 255.543 309.727 256.773ZM299.227 250.727C300.457 250.727 301.455 249.73 301.455 248.5C301.455 247.27 300.457 246.273 299.227 246.273C297.997 246.273 297 247.27 297 248.5C297 249.73 297.997 250.727 299.227 250.727ZM318 248.5C318 249.73 317.003 250.727 315.773 250.727C314.543 250.727 313.545 249.73 313.545 248.5C313.545 247.27 314.543 246.273 315.773 246.273C317.003 246.273 318 247.27 318 248.5ZM381.5 242.455C382.73 242.455 383.727 241.457 383.727 240.227C383.727 238.997 382.73 238 381.5 238C380.27 238 379.273 238.997 379.273 240.227C379.273 241.457 380.27 242.455 381.5 242.455ZM381.5 259C382.73 259 383.727 258.003 383.727 256.773C383.727 255.543 382.73 254.545 381.5 254.545C380.27 254.545 379.273 255.543 379.273 256.773C379.273 258.003 380.27 259 381.5 259ZM375.455 248.5C375.455 249.73 374.457 250.727 373.227 250.727C371.997 250.727 371 249.73 371 248.5C371 247.27 371.997 246.273 373.227 246.273C374.457 246.273 375.455 247.27 375.455 248.5ZM389.773 250.727C391.003 250.727 392 249.73 392 248.5C392 247.27 391.003 246.273 389.773 246.273C388.543 246.273 387.545 247.27 387.545 248.5C387.545 249.73 388.543 250.727 389.773 250.727ZM48.5 279.455C49.7301 279.455 50.7273 278.457 50.7273 277.227C50.7273 275.997 49.7301 275 48.5 275C47.2699 275 46.2727 275.997 46.2727 277.227C46.2727 278.457 47.2699 279.455 48.5 279.455ZM48.5 296C49.7301 296 50.7273 295.003 50.7273 293.773C50.7273 292.543 49.7301 291.545 48.5 291.545C47.2699 291.545 46.2727 292.543 46.2727 293.773C46.2727 295.003 47.2699 296 48.5 296ZM42.4545 285.5C42.4545 286.73 41.4574 287.727 40.2273 287.727C38.9972 287.727 38 286.73 38 285.5C38 284.27 38.9972 283.273 40.2273 283.273C41.4574 283.273 42.4545 284.27 42.4545 285.5ZM56.7727 287.727C58.0028 287.727 59 286.73 59 285.5C59 284.27 58.0028 283.273 56.7727 283.273C55.5426 283.273 54.5455 284.27 54.5455 285.5C54.5455 286.73 55.5426 287.727 56.7727 287.727ZM122.5 279.455C123.73 279.455 124.727 278.457 124.727 277.227C124.727 275.997 123.73 275 122.5 275C121.27 275 120.273 275.997 120.273 277.227C120.273 278.457 121.27 279.455 122.5 279.455ZM122.5 296C123.73 296 124.727 295.003 124.727 293.773C124.727 292.543 123.73 291.545 122.5 291.545C121.27 291.545 120.273 292.543 120.273 293.773C120.273 295.003 121.27 296 122.5 296ZM116.455 285.5C116.455 286.73 115.457 287.727 114.227 287.727C112.997 287.727 112 286.73 112 285.5C112 284.27 112.997 283.273 114.227 283.273C115.457 283.273 116.455 284.27 116.455 285.5ZM130.773 287.727C132.003 287.727 133 286.73 133 285.5C133 284.27 132.003 283.273 130.773 283.273C129.543 283.273 128.545 284.27 128.545 285.5C128.545 286.73 129.543 287.727 130.773 287.727ZM198.727 277.227C198.727 278.457 197.73 279.455 196.5 279.455C195.27 279.455 194.273 278.457 194.273 277.227C194.273 275.997 195.27 275 196.5 275C197.73 275 198.727 275.997 198.727 277.227ZM198.727 293.773C198.727 295.003 197.73 296 196.5 296C195.27 296 194.273 295.003 194.273 293.773C194.273 292.543 195.27 291.545 196.5 291.545C197.73 291.545 198.727 292.543 198.727 293.773ZM188.227 287.727C189.457 287.727 190.455 286.73 190.455 285.5C190.455 284.27 189.457 283.273 188.227 283.273C186.997 283.273 186 284.27 186 285.5C186 286.73 186.997 287.727 188.227 287.727ZM207 285.5C207 286.73 206.003 287.727 204.773 287.727C203.543 287.727 202.545 286.73 202.545 285.5C202.545 284.27 203.543 283.273 204.773 283.273C206.003 283.273 207 284.27 207 285.5ZM270.5 279.455C271.73 279.455 272.727 278.457 272.727 277.227C272.727 275.997 271.73 275 270.5 275C269.27 275 268.273 275.997 268.273 277.227C268.273 278.457 269.27 279.455 270.5 279.455ZM270.5 296C271.73 296 272.727 295.003 272.727 293.773C272.727 292.543 271.73 291.545 270.5 291.545C269.27 291.545 268.273 292.543 268.273 293.773C268.273 295.003 269.27 296 270.5 296ZM264.455 285.5C264.455 286.73 263.457 287.727 262.227 287.727C260.997 287.727 260 286.73 260 285.5C260 284.27 260.997 283.273 262.227 283.273C263.457 283.273 264.455 284.27 264.455 285.5ZM278.773 287.727C280.003 287.727 281 286.73 281 285.5C281 284.27 280.003 283.273 278.773 283.273C277.543 283.273 276.545 284.27 276.545 285.5C276.545 286.73 277.543 287.727 278.773 287.727ZM346.727 277.227C346.727 278.457 345.73 279.455 344.5 279.455C343.27 279.455 342.273 278.457 342.273 277.227C342.273 275.997 343.27 275 344.5 275C345.73 275 346.727 275.997 346.727 277.227ZM346.727 293.773C346.727 295.003 345.73 296 344.5 296C343.27 296 342.273 295.003 342.273 293.773C342.273 292.543 343.27 291.545 344.5 291.545C345.73 291.545 346.727 292.543 346.727 293.773ZM336.227 287.727C337.457 287.727 338.455 286.73 338.455 285.5C338.455 284.27 337.457 283.273 336.227 283.273C334.997 283.273 334 284.27 334 285.5C334 286.73 334.997 287.727 336.227 287.727ZM355 285.5C355 286.73 354.003 287.727 352.773 287.727C351.543 287.727 350.545 286.73 350.545 285.5C350.545 284.27 351.543 283.273 352.773 283.273C354.003 283.273 355 284.27 355 285.5ZM13.7273 314.227C13.7273 315.457 12.7301 316.455 11.5 316.455C10.2699 316.455 9.27273 315.457 9.27273 314.227C9.27273 312.997 10.2699 312 11.5 312C12.7301 312 13.7273 312.997 13.7273 314.227ZM13.7273 330.773C13.7273 332.003 12.7301 333 11.5 333C10.2699 333 9.27273 332.003 9.27273 330.773C9.27273 329.543 10.2699 328.545 11.5 328.545C12.7301 328.545 13.7273 329.543 13.7273 330.773ZM3.22727 324.727C4.45736 324.727 5.45455 323.73 5.45455 322.5C5.45455 321.27 4.45736 320.273 3.22727 320.273C1.99718 320.273 1 321.27 1 322.5C1 323.73 1.99718 324.727 3.22727 324.727ZM22 322.5C22 323.73 21.0028 324.727 19.7727 324.727C18.5426 324.727 17.5455 323.73 17.5455 322.5C17.5455 321.27 18.5426 320.273 19.7727 320.273C21.0028 320.273 22 321.27 22 322.5ZM87.7273 314.227C87.7273 315.457 86.7301 316.455 85.5 316.455C84.2699 316.455 83.2727 315.457 83.2727 314.227C83.2727 312.997 84.2699 312 85.5 312C86.7301 312 87.7273 312.997 87.7273 314.227ZM87.7273 330.773C87.7273 332.003 86.7301 333 85.5 333C84.2699 333 83.2727 332.003 83.2727 330.773C83.2727 329.543 84.2699 328.545 85.5 328.545C86.7301 328.545 87.7273 329.543 87.7273 330.773ZM77.2273 324.727C78.4574 324.727 79.4545 323.73 79.4545 322.5C79.4545 321.27 78.4574 320.273 77.2273 320.273C75.9972 320.273 75 321.27 75 322.5C75 323.73 75.9972 324.727 77.2273 324.727ZM96 322.5C96 323.73 95.0028 324.727 93.7727 324.727C92.5426 324.727 91.5455 323.73 91.5455 322.5C91.5455 321.27 92.5426 320.273 93.7727 320.273C95.0028 320.273 96 321.27 96 322.5ZM48.5 316.455C49.7301 316.455 50.7273 315.457 50.7273 314.227C50.7273 312.997 49.7301 312 48.5 312C47.2699 312 46.2727 312.997 46.2727 314.227C46.2727 315.457 47.2699 316.455 48.5 316.455ZM48.5 333C49.7301 333 50.7273 332.003 50.7273 330.773C50.7273 329.543 49.7301 328.545 48.5 328.545C47.2699 328.545 46.2727 329.543 46.2727 330.773C46.2727 332.003 47.2699 333 48.5 333ZM42.4545 322.5C42.4545 323.73 41.4574 324.727 40.2273 324.727C38.9972 324.727 38 323.73 38 322.5C38 321.27 38.9972 320.273 40.2273 320.273C41.4574 320.273 42.4545 321.27 42.4545 322.5ZM56.7727 324.727C58.0028 324.727 59 323.73 59 322.5C59 321.27 58.0028 320.273 56.7727 320.273C55.5426 320.273 54.5455 321.27 54.5455 322.5C54.5455 323.73 55.5426 324.727 56.7727 324.727ZM161.727 314.227C161.727 315.457 160.73 316.455 159.5 316.455C158.27 316.455 157.273 315.457 157.273 314.227C157.273 312.997 158.27 312 159.5 312C160.73 312 161.727 312.997 161.727 314.227ZM161.727 330.773C161.727 332.003 160.73 333 159.5 333C158.27 333 157.273 332.003 157.273 330.773C157.273 329.543 158.27 328.545 159.5 328.545C160.73 328.545 161.727 329.543 161.727 330.773ZM151.227 324.727C152.457 324.727 153.455 323.73 153.455 322.5C153.455 321.27 152.457 320.273 151.227 320.273C149.997 320.273 149 321.27 149 322.5C149 323.73 149.997 324.727 151.227 324.727ZM170 322.5C170 323.73 169.003 324.727 167.773 324.727C166.543 324.727 165.545 323.73 165.545 322.5C165.545 321.27 166.543 320.273 167.773 320.273C169.003 320.273 170 321.27 170 322.5ZM122.5 316.455C123.73 316.455 124.727 315.457 124.727 314.227C124.727 312.997 123.73 312 122.5 312C121.27 312 120.273 312.997 120.273 314.227C120.273 315.457 121.27 316.455 122.5 316.455ZM122.5 333C123.73 333 124.727 332.003 124.727 330.773C124.727 329.543 123.73 328.545 122.5 328.545C121.27 328.545 120.273 329.543 120.273 330.773C120.273 332.003 121.27 333 122.5 333ZM116.455 322.5C116.455 323.73 115.457 324.727 114.227 324.727C112.997 324.727 112 323.73 112 322.5C112 321.27 112.997 320.273 114.227 320.273C115.457 320.273 116.455 321.27 116.455 322.5ZM130.773 324.727C132.003 324.727 133 323.73 133 322.5C133 321.27 132.003 320.273 130.773 320.273C129.543 320.273 128.545 321.27 128.545 322.5C128.545 323.73 129.543 324.727 130.773 324.727ZM235.727 314.227C235.727 315.457 234.73 316.455 233.5 316.455C232.27 316.455 231.273 315.457 231.273 314.227C231.273 312.997 232.27 312 233.5 312C234.73 312 235.727 312.997 235.727 314.227ZM235.727 330.773C235.727 332.003 234.73 333 233.5 333C232.27 333 231.273 332.003 231.273 330.773C231.273 329.543 232.27 328.545 233.5 328.545C234.73 328.545 235.727 329.543 235.727 330.773ZM225.227 324.727C226.457 324.727 227.455 323.73 227.455 322.5C227.455 321.27 226.457 320.273 225.227 320.273C223.997 320.273 223 321.27 223 322.5C223 323.73 223.997 324.727 225.227 324.727ZM244 322.5C244 323.73 243.003 324.727 241.773 324.727C240.543 324.727 239.545 323.73 239.545 322.5C239.545 321.27 240.543 320.273 241.773 320.273C243.003 320.273 244 321.27 244 322.5ZM196.5 316.455C197.73 316.455 198.727 315.457 198.727 314.227C198.727 312.997 197.73 312 196.5 312C195.27 312 194.273 312.997 194.273 314.227C194.273 315.457 195.27 316.455 196.5 316.455ZM196.5 333C197.73 333 198.727 332.003 198.727 330.773C198.727 329.543 197.73 328.545 196.5 328.545C195.27 328.545 194.273 329.543 194.273 330.773C194.273 332.003 195.27 333 196.5 333ZM190.455 322.5C190.455 323.73 189.457 324.727 188.227 324.727C186.997 324.727 186 323.73 186 322.5C186 321.27 186.997 320.273 188.227 320.273C189.457 320.273 190.455 321.27 190.455 322.5ZM204.773 324.727C206.003 324.727 207 323.73 207 322.5C207 321.27 206.003 320.273 204.773 320.273C203.543 320.273 202.545 321.27 202.545 322.5C202.545 323.73 203.543 324.727 204.773 324.727ZM309.727 314.227C309.727 315.457 308.73 316.455 307.5 316.455C306.27 316.455 305.273 315.457 305.273 314.227C305.273 312.997 306.27 312 307.5 312C308.73 312 309.727 312.997 309.727 314.227ZM309.727 330.773C309.727 332.003 308.73 333 307.5 333C306.27 333 305.273 332.003 305.273 330.773C305.273 329.543 306.27 328.545 307.5 328.545C308.73 328.545 309.727 329.543 309.727 330.773ZM299.227 324.727C300.457 324.727 301.455 323.73 301.455 322.5C301.455 321.27 300.457 320.273 299.227 320.273C297.997 320.273 297 321.27 297 322.5C297 323.73 297.997 324.727 299.227 324.727ZM318 322.5C318 323.73 317.003 324.727 315.773 324.727C314.543 324.727 313.545 323.73 313.545 322.5C313.545 321.27 314.543 320.273 315.773 320.273C317.003 320.273 318 321.27 318 322.5ZM270.5 316.455C271.73 316.455 272.727 315.457 272.727 314.227C272.727 312.997 271.73 312 270.5 312C269.27 312 268.273 312.997 268.273 314.227C268.273 315.457 269.27 316.455 270.5 316.455ZM270.5 333C271.73 333 272.727 332.003 272.727 330.773C272.727 329.543 271.73 328.545 270.5 328.545C269.27 328.545 268.273 329.543 268.273 330.773C268.273 332.003 269.27 333 270.5 333ZM264.455 322.5C264.455 323.73 263.457 324.727 262.227 324.727C260.997 324.727 260 323.73 260 322.5C260 321.27 260.997 320.273 262.227 320.273C263.457 320.273 264.455 321.27 264.455 322.5ZM278.773 324.727C280.003 324.727 281 323.73 281 322.5C281 321.27 280.003 320.273 278.773 320.273C277.543 320.273 276.545 321.27 276.545 322.5C276.545 323.73 277.543 324.727 278.773 324.727ZM383.727 314.227C383.727 315.457 382.73 316.455 381.5 316.455C380.27 316.455 379.273 315.457 379.273 314.227C379.273 312.997 380.27 312 381.5 312C382.73 312 383.727 312.997 383.727 314.227ZM383.727 330.773C383.727 332.003 382.73 333 381.5 333C380.27 333 379.273 332.003 379.273 330.773C379.273 329.543 380.27 328.545 381.5 328.545C382.73 328.545 383.727 329.543 383.727 330.773ZM373.227 324.727C374.457 324.727 375.455 323.73 375.455 322.5C375.455 321.27 374.457 320.273 373.227 320.273C371.997 320.273 371 321.27 371 322.5C371 323.73 371.997 324.727 373.227 324.727ZM392 322.5C392 323.73 391.003 324.727 389.773 324.727C388.543 324.727 387.545 323.73 387.545 322.5C387.545 321.27 388.543 320.273 389.773 320.273C391.003 320.273 392 321.27 392 322.5ZM344.5 316.455C345.73 316.455 346.727 315.457 346.727 314.227C346.727 312.997 345.73 312 344.5 312C343.27 312 342.273 312.997 342.273 314.227C342.273 315.457 343.27 316.455 344.5 316.455ZM344.5 333C345.73 333 346.727 332.003 346.727 330.773C346.727 329.543 345.73 328.545 344.5 328.545C343.27 328.545 342.273 329.543 342.273 330.773C342.273 332.003 343.27 333 344.5 333ZM338.455 322.5C338.455 323.73 337.457 324.727 336.227 324.727C334.997 324.727 334 323.73 334 322.5C334 321.27 334.997 320.273 336.227 320.273C337.457 320.273 338.455 321.27 338.455 322.5ZM352.773 324.727C354.003 324.727 355 323.73 355 322.5C355 321.27 354.003 320.273 352.773 320.273C351.543 320.273 350.545 321.27 350.545 322.5C350.545 323.73 351.543 324.727 352.773 324.727ZM13.7273 351.227C13.7273 352.457 12.7301 353.455 11.5 353.455C10.2699 353.455 9.27273 352.457 9.27273 351.227C9.27273 349.997 10.2699 349 11.5 349C12.7301 349 13.7273 349.997 13.7273 351.227ZM13.7273 367.773C13.7273 369.003 12.7301 370 11.5 370C10.2699 370 9.27273 369.003 9.27273 367.773C9.27273 366.543 10.2699 365.545 11.5 365.545C12.7301 365.545 13.7273 366.543 13.7273 367.773ZM3.22727 361.727C4.45736 361.727 5.45455 360.73 5.45455 359.5C5.45455 358.27 4.45736 357.273 3.22727 357.273C1.99718 357.273 1 358.27 1 359.5C1 360.73 1.99718 361.727 3.22727 361.727ZM22 359.5C22 360.73 21.0028 361.727 19.7727 361.727C18.5426 361.727 17.5455 360.73 17.5455 359.5C17.5455 358.27 18.5426 357.273 19.7727 357.273C21.0028 357.273 22 358.27 22 359.5ZM87.7273 351.227C87.7273 352.457 86.7301 353.455 85.5 353.455C84.2699 353.455 83.2727 352.457 83.2727 351.227C83.2727 349.997 84.2699 349 85.5 349C86.7301 349 87.7273 349.997 87.7273 351.227ZM87.7273 367.773C87.7273 369.003 86.7301 370 85.5 370C84.2699 370 83.2727 369.003 83.2727 367.773C83.2727 366.543 84.2699 365.545 85.5 365.545C86.7301 365.545 87.7273 366.543 87.7273 367.773ZM77.2273 361.727C78.4574 361.727 79.4545 360.73 79.4545 359.5C79.4545 358.27 78.4574 357.273 77.2273 357.273C75.9972 357.273 75 358.27 75 359.5C75 360.73 75.9972 361.727 77.2273 361.727ZM96 359.5C96 360.73 95.0028 361.727 93.7727 361.727C92.5426 361.727 91.5455 360.73 91.5455 359.5C91.5455 358.27 92.5426 357.273 93.7727 357.273C95.0028 357.273 96 358.27 96 359.5ZM159.5 353.455C160.73 353.455 161.727 352.457 161.727 351.227C161.727 349.997 160.73 349 159.5 349C158.27 349 157.273 349.997 157.273 351.227C157.273 352.457 158.27 353.455 159.5 353.455ZM159.5 370C160.73 370 161.727 369.003 161.727 367.773C161.727 366.543 160.73 365.545 159.5 365.545C158.27 365.545 157.273 366.543 157.273 367.773C157.273 369.003 158.27 370 159.5 370ZM153.455 359.5C153.455 360.73 152.457 361.727 151.227 361.727C149.997 361.727 149 360.73 149 359.5C149 358.27 149.997 357.273 151.227 357.273C152.457 357.273 153.455 358.27 153.455 359.5ZM167.773 361.727C169.003 361.727 170 360.73 170 359.5C170 358.27 169.003 357.273 167.773 357.273C166.543 357.273 165.545 358.27 165.545 359.5C165.545 360.73 166.543 361.727 167.773 361.727ZM235.727 351.227C235.727 352.457 234.73 353.455 233.5 353.455C232.27 353.455 231.273 352.457 231.273 351.227C231.273 349.997 232.27 349 233.5 349C234.73 349 235.727 349.997 235.727 351.227ZM235.727 367.773C235.727 369.003 234.73 370 233.5 370C232.27 370 231.273 369.003 231.273 367.773C231.273 366.543 232.27 365.545 233.5 365.545C234.73 365.545 235.727 366.543 235.727 367.773ZM225.227 361.727C226.457 361.727 227.455 360.73 227.455 359.5C227.455 358.27 226.457 357.273 225.227 357.273C223.997 357.273 223 358.27 223 359.5C223 360.73 223.997 361.727 225.227 361.727ZM244 359.5C244 360.73 243.003 361.727 241.773 361.727C240.543 361.727 239.545 360.73 239.545 359.5C239.545 358.27 240.543 357.273 241.773 357.273C243.003 357.273 244 358.27 244 359.5ZM307.5 353.455C308.73 353.455 309.727 352.457 309.727 351.227C309.727 349.997 308.73 349 307.5 349C306.27 349 305.273 349.997 305.273 351.227C305.273 352.457 306.27 353.455 307.5 353.455ZM307.5 370C308.73 370 309.727 369.003 309.727 367.773C309.727 366.543 308.73 365.545 307.5 365.545C306.27 365.545 305.273 366.543 305.273 367.773C305.273 369.003 306.27 370 307.5 370ZM301.455 359.5C301.455 360.73 300.457 361.727 299.227 361.727C297.997 361.727 297 360.73 297 359.5C297 358.27 297.997 357.273 299.227 357.273C300.457 357.273 301.455 358.27 301.455 359.5ZM315.773 361.727C317.003 361.727 318 360.73 318 359.5C318 358.27 317.003 357.273 315.773 357.273C314.543 357.273 313.545 358.27 313.545 359.5C313.545 360.73 314.543 361.727 315.773 361.727ZM383.727 351.227C383.727 352.457 382.73 353.455 381.5 353.455C380.27 353.455 379.273 352.457 379.273 351.227C379.273 349.997 380.27 349 381.5 349C382.73 349 383.727 349.997 383.727 351.227ZM383.727 367.773C383.727 369.003 382.73 370 381.5 370C380.27 370 379.273 369.003 379.273 367.773C379.273 366.543 380.27 365.545 381.5 365.545C382.73 365.545 383.727 366.543 383.727 367.773ZM373.227 361.727C374.457 361.727 375.455 360.73 375.455 359.5C375.455 358.27 374.457 357.273 373.227 357.273C371.997 357.273 371 358.27 371 359.5C371 360.73 371.997 361.727 373.227 361.727ZM392 359.5C392 360.73 391.003 361.727 389.773 361.727C388.543 361.727 387.545 360.73 387.545 359.5C387.545 358.27 388.543 357.273 389.773 357.273C391.003 357.273 392 358.27 392 359.5ZM50.7273 388.227C50.7273 389.457 49.7301 390.455 48.5 390.455C47.2699 390.455 46.2727 389.457 46.2727 388.227C46.2727 386.997 47.2699 386 48.5 386C49.7301 386 50.7273 386.997 50.7273 388.227ZM50.7273 404.773C50.7273 406.003 49.7301 407 48.5 407C47.2699 407 46.2727 406.003 46.2727 404.773C46.2727 403.543 47.2699 402.545 48.5 402.545C49.7301 402.545 50.7273 403.543 50.7273 404.773ZM40.2273 398.727C41.4574 398.727 42.4545 397.73 42.4545 396.5C42.4545 395.27 41.4574 394.273 40.2273 394.273C38.9972 394.273 38 395.27 38 396.5C38 397.73 38.9972 398.727 40.2273 398.727ZM59 396.5C59 397.73 58.0028 398.727 56.7727 398.727C55.5426 398.727 54.5455 397.73 54.5455 396.5C54.5455 395.27 55.5426 394.273 56.7727 394.273C58.0028 394.273 59 395.27 59 396.5ZM124.727 388.227C124.727 389.457 123.73 390.455 122.5 390.455C121.27 390.455 120.273 389.457 120.273 388.227C120.273 386.997 121.27 386 122.5 386C123.73 386 124.727 386.997 124.727 388.227ZM124.727 404.773C124.727 406.003 123.73 407 122.5 407C121.27 407 120.273 406.003 120.273 404.773C120.273 403.543 121.27 402.545 122.5 402.545C123.73 402.545 124.727 403.543 124.727 404.773ZM114.227 398.727C115.457 398.727 116.455 397.73 116.455 396.5C116.455 395.27 115.457 394.273 114.227 394.273C112.997 394.273 112 395.27 112 396.5C112 397.73 112.997 398.727 114.227 398.727ZM133 396.5C133 397.73 132.003 398.727 130.773 398.727C129.543 398.727 128.545 397.73 128.545 396.5C128.545 395.27 129.543 394.273 130.773 394.273C132.003 394.273 133 395.27 133 396.5ZM196.5 390.455C197.73 390.455 198.727 389.457 198.727 388.227C198.727 386.997 197.73 386 196.5 386C195.27 386 194.273 386.997 194.273 388.227C194.273 389.457 195.27 390.455 196.5 390.455ZM196.5 407C197.73 407 198.727 406.003 198.727 404.773C198.727 403.543 197.73 402.545 196.5 402.545C195.27 402.545 194.273 403.543 194.273 404.773C194.273 406.003 195.27 407 196.5 407ZM190.455 396.5C190.455 397.73 189.457 398.727 188.227 398.727C186.997 398.727 186 397.73 186 396.5C186 395.27 186.997 394.273 188.227 394.273C189.457 394.273 190.455 395.27 190.455 396.5ZM204.773 398.727C206.003 398.727 207 397.73 207 396.5C207 395.27 206.003 394.273 204.773 394.273C203.543 394.273 202.545 395.27 202.545 396.5C202.545 397.73 203.543 398.727 204.773 398.727ZM272.727 388.227C272.727 389.457 271.73 390.455 270.5 390.455C269.27 390.455 268.273 389.457 268.273 388.227C268.273 386.997 269.27 386 270.5 386C271.73 386 272.727 386.997 272.727 388.227ZM272.727 404.773C272.727 406.003 271.73 407 270.5 407C269.27 407 268.273 406.003 268.273 404.773C268.273 403.543 269.27 402.545 270.5 402.545C271.73 402.545 272.727 403.543 272.727 404.773ZM262.227 398.727C263.457 398.727 264.455 397.73 264.455 396.5C264.455 395.27 263.457 394.273 262.227 394.273C260.997 394.273 260 395.27 260 396.5C260 397.73 260.997 398.727 262.227 398.727ZM281 396.5C281 397.73 280.003 398.727 278.773 398.727C277.543 398.727 276.545 397.73 276.545 396.5C276.545 395.27 277.543 394.273 278.773 394.273C280.003 394.273 281 395.27 281 396.5ZM344.5 390.455C345.73 390.455 346.727 389.457 346.727 388.227C346.727 386.997 345.73 386 344.5 386C343.27 386 342.273 386.997 342.273 388.227C342.273 389.457 343.27 390.455 344.5 390.455ZM344.5 407C345.73 407 346.727 406.003 346.727 404.773C346.727 403.543 345.73 402.545 344.5 402.545C343.27 402.545 342.273 403.543 342.273 404.773C342.273 406.003 343.27 407 344.5 407ZM338.455 396.5C338.455 397.73 337.457 398.727 336.227 398.727C334.997 398.727 334 397.73 334 396.5C334 395.27 334.997 394.273 336.227 394.273C337.457 394.273 338.455 395.27 338.455 396.5ZM352.773 398.727C354.003 398.727 355 397.73 355 396.5C355 395.27 354.003 394.273 352.773 394.273C351.543 394.273 350.545 395.27 350.545 396.5C350.545 397.73 351.543 398.727 352.773 398.727ZM11.5 427.455C12.7301 427.455 13.7273 426.457 13.7273 425.227C13.7273 423.997 12.7301 423 11.5 423C10.2699 423 9.27273 423.997 9.27273 425.227C9.27273 426.457 10.2699 427.455 11.5 427.455ZM11.5 444C12.7301 444 13.7273 443.003 13.7273 441.773C13.7273 440.543 12.7301 439.545 11.5 439.545C10.2699 439.545 9.27273 440.543 9.27273 441.773C9.27273 443.003 10.2699 444 11.5 444ZM5.45455 433.5C5.45455 434.73 4.45736 435.727 3.22727 435.727C1.99718 435.727 1 434.73 1 433.5C1 432.27 1.99718 431.273 3.22727 431.273C4.45736 431.273 5.45455 432.27 5.45455 433.5ZM19.7727 435.727C21.0028 435.727 22 434.73 22 433.5C22 432.27 21.0028 431.273 19.7727 431.273C18.5426 431.273 17.5455 432.27 17.5455 433.5C17.5455 434.73 18.5426 435.727 19.7727 435.727ZM85.5 427.455C86.7301 427.455 87.7273 426.457 87.7273 425.227C87.7273 423.997 86.7301 423 85.5 423C84.2699 423 83.2727 423.997 83.2727 425.227C83.2727 426.457 84.2699 427.455 85.5 427.455ZM85.5 444C86.7301 444 87.7273 443.003 87.7273 441.773C87.7273 440.543 86.7301 439.545 85.5 439.545C84.2699 439.545 83.2727 440.543 83.2727 441.773C83.2727 443.003 84.2699 444 85.5 444ZM79.4545 433.5C79.4545 434.73 78.4574 435.727 77.2273 435.727C75.9972 435.727 75 434.73 75 433.5C75 432.27 75.9972 431.273 77.2273 431.273C78.4574 431.273 79.4545 432.27 79.4545 433.5ZM93.7727 435.727C95.0028 435.727 96 434.73 96 433.5C96 432.27 95.0028 431.273 93.7727 431.273C92.5426 431.273 91.5455 432.27 91.5455 433.5C91.5455 434.73 92.5426 435.727 93.7727 435.727ZM50.7273 425.227C50.7273 426.457 49.7301 427.455 48.5 427.455C47.2699 427.455 46.2727 426.457 46.2727 425.227C46.2727 423.997 47.2699 423 48.5 423C49.7301 423 50.7273 423.997 50.7273 425.227ZM50.7273 441.773C50.7273 443.003 49.7301 444 48.5 444C47.2699 444 46.2727 443.003 46.2727 441.773C46.2727 440.543 47.2699 439.545 48.5 439.545C49.7301 439.545 50.7273 440.543 50.7273 441.773ZM40.2273 435.727C41.4574 435.727 42.4545 434.73 42.4545 433.5C42.4545 432.27 41.4574 431.273 40.2273 431.273C38.9972 431.273 38 432.27 38 433.5C38 434.73 38.9972 435.727 40.2273 435.727ZM59 433.5C59 434.73 58.0028 435.727 56.7727 435.727C55.5426 435.727 54.5455 434.73 54.5455 433.5C54.5455 432.27 55.5426 431.273 56.7727 431.273C58.0028 431.273 59 432.27 59 433.5ZM159.5 427.455C160.73 427.455 161.727 426.457 161.727 425.227C161.727 423.997 160.73 423 159.5 423C158.27 423 157.273 423.997 157.273 425.227C157.273 426.457 158.27 427.455 159.5 427.455ZM159.5 444C160.73 444 161.727 443.003 161.727 441.773C161.727 440.543 160.73 439.545 159.5 439.545C158.27 439.545 157.273 440.543 157.273 441.773C157.273 443.003 158.27 444 159.5 444ZM153.455 433.5C153.455 434.73 152.457 435.727 151.227 435.727C149.997 435.727 149 434.73 149 433.5C149 432.27 149.997 431.273 151.227 431.273C152.457 431.273 153.455 432.27 153.455 433.5ZM167.773 435.727C169.003 435.727 170 434.73 170 433.5C170 432.27 169.003 431.273 167.773 431.273C166.543 431.273 165.545 432.27 165.545 433.5C165.545 434.73 166.543 435.727 167.773 435.727ZM124.727 425.227C124.727 426.457 123.73 427.455 122.5 427.455C121.27 427.455 120.273 426.457 120.273 425.227C120.273 423.997 121.27 423 122.5 423C123.73 423 124.727 423.997 124.727 425.227ZM124.727 441.773C124.727 443.003 123.73 444 122.5 444C121.27 444 120.273 443.003 120.273 441.773C120.273 440.543 121.27 439.545 122.5 439.545C123.73 439.545 124.727 440.543 124.727 441.773ZM114.227 435.727C115.457 435.727 116.455 434.73 116.455 433.5C116.455 432.27 115.457 431.273 114.227 431.273C112.997 431.273 112 432.27 112 433.5C112 434.73 112.997 435.727 114.227 435.727ZM133 433.5C133 434.73 132.003 435.727 130.773 435.727C129.543 435.727 128.545 434.73 128.545 433.5C128.545 432.27 129.543 431.273 130.773 431.273C132.003 431.273 133 432.27 133 433.5ZM233.5 427.455C234.73 427.455 235.727 426.457 235.727 425.227C235.727 423.997 234.73 423 233.5 423C232.27 423 231.273 423.997 231.273 425.227C231.273 426.457 232.27 427.455 233.5 427.455ZM233.5 444C234.73 444 235.727 443.003 235.727 441.773C235.727 440.543 234.73 439.545 233.5 439.545C232.27 439.545 231.273 440.543 231.273 441.773C231.273 443.003 232.27 444 233.5 444ZM227.455 433.5C227.455 434.73 226.457 435.727 225.227 435.727C223.997 435.727 223 434.73 223 433.5C223 432.27 223.997 431.273 225.227 431.273C226.457 431.273 227.455 432.27 227.455 433.5ZM241.773 435.727C243.003 435.727 244 434.73 244 433.5C244 432.27 243.003 431.273 241.773 431.273C240.543 431.273 239.545 432.27 239.545 433.5C239.545 434.73 240.543 435.727 241.773 435.727ZM198.727 425.227C198.727 426.457 197.73 427.455 196.5 427.455C195.27 427.455 194.273 426.457 194.273 425.227C194.273 423.997 195.27 423 196.5 423C197.73 423 198.727 423.997 198.727 425.227ZM198.727 441.773C198.727 443.003 197.73 444 196.5 444C195.27 444 194.273 443.003 194.273 441.773C194.273 440.543 195.27 439.545 196.5 439.545C197.73 439.545 198.727 440.543 198.727 441.773ZM188.227 435.727C189.457 435.727 190.455 434.73 190.455 433.5C190.455 432.27 189.457 431.273 188.227 431.273C186.997 431.273 186 432.27 186 433.5C186 434.73 186.997 435.727 188.227 435.727ZM207 433.5C207 434.73 206.003 435.727 204.773 435.727C203.543 435.727 202.545 434.73 202.545 433.5C202.545 432.27 203.543 431.273 204.773 431.273C206.003 431.273 207 432.27 207 433.5ZM307.5 427.455C308.73 427.455 309.727 426.457 309.727 425.227C309.727 423.997 308.73 423 307.5 423C306.27 423 305.273 423.997 305.273 425.227C305.273 426.457 306.27 427.455 307.5 427.455ZM307.5 444C308.73 444 309.727 443.003 309.727 441.773C309.727 440.543 308.73 439.545 307.5 439.545C306.27 439.545 305.273 440.543 305.273 441.773C305.273 443.003 306.27 444 307.5 444ZM301.455 433.5C301.455 434.73 300.457 435.727 299.227 435.727C297.997 435.727 297 434.73 297 433.5C297 432.27 297.997 431.273 299.227 431.273C300.457 431.273 301.455 432.27 301.455 433.5ZM315.773 435.727C317.003 435.727 318 434.73 318 433.5C318 432.27 317.003 431.273 315.773 431.273C314.543 431.273 313.545 432.27 313.545 433.5C313.545 434.73 314.543 435.727 315.773 435.727ZM272.727 425.227C272.727 426.457 271.73 427.455 270.5 427.455C269.27 427.455 268.273 426.457 268.273 425.227C268.273 423.997 269.27 423 270.5 423C271.73 423 272.727 423.997 272.727 425.227ZM272.727 441.773C272.727 443.003 271.73 444 270.5 444C269.27 444 268.273 443.003 268.273 441.773C268.273 440.543 269.27 439.545 270.5 439.545C271.73 439.545 272.727 440.543 272.727 441.773ZM262.227 435.727C263.457 435.727 264.455 434.73 264.455 433.5C264.455 432.27 263.457 431.273 262.227 431.273C260.997 431.273 260 432.27 260 433.5C260 434.73 260.997 435.727 262.227 435.727ZM281 433.5C281 434.73 280.003 435.727 278.773 435.727C277.543 435.727 276.545 434.73 276.545 433.5C276.545 432.27 277.543 431.273 278.773 431.273C280.003 431.273 281 432.27 281 433.5ZM381.5 427.455C382.73 427.455 383.727 426.457 383.727 425.227C383.727 423.997 382.73 423 381.5 423C380.27 423 379.273 423.997 379.273 425.227C379.273 426.457 380.27 427.455 381.5 427.455ZM381.5 444C382.73 444 383.727 443.003 383.727 441.773C383.727 440.543 382.73 439.545 381.5 439.545C380.27 439.545 379.273 440.543 379.273 441.773C379.273 443.003 380.27 444 381.5 444ZM375.455 433.5C375.455 434.73 374.457 435.727 373.227 435.727C371.997 435.727 371 434.73 371 433.5C371 432.27 371.997 431.273 373.227 431.273C374.457 431.273 375.455 432.27 375.455 433.5ZM389.773 435.727C391.003 435.727 392 434.73 392 433.5C392 432.27 391.003 431.273 389.773 431.273C388.543 431.273 387.545 432.27 387.545 433.5C387.545 434.73 388.543 435.727 389.773 435.727ZM346.727 425.227C346.727 426.457 345.73 427.455 344.5 427.455C343.27 427.455 342.273 426.457 342.273 425.227C342.273 423.997 343.27 423 344.5 423C345.73 423 346.727 423.997 346.727 425.227ZM346.727 441.773C346.727 443.003 345.73 444 344.5 444C343.27 444 342.273 443.003 342.273 441.773C342.273 440.543 343.27 439.545 344.5 439.545C345.73 439.545 346.727 440.543 346.727 441.773ZM336.227 435.727C337.457 435.727 338.455 434.73 338.455 433.5C338.455 432.27 337.457 431.273 336.227 431.273C334.997 431.273 334 432.27 334 433.5C334 434.73 334.997 435.727 336.227 435.727ZM355 433.5C355 434.73 354.003 435.727 352.773 435.727C351.543 435.727 350.545 434.73 350.545 433.5C350.545 432.27 351.543 431.273 352.773 431.273C354.003 431.273 355 432.27 355 433.5ZM11.5 464.455C12.7301 464.455 13.7273 463.457 13.7273 462.227C13.7273 460.997 12.7301 460 11.5 460C10.2699 460 9.27273 460.997 9.27273 462.227C9.27273 463.457 10.2699 464.455 11.5 464.455ZM11.5 481C12.7301 481 13.7273 480.003 13.7273 478.773C13.7273 477.543 12.7301 476.545 11.5 476.545C10.2699 476.545 9.27273 477.543 9.27273 478.773C9.27273 480.003 10.2699 481 11.5 481ZM5.45455 470.5C5.45455 471.73 4.45736 472.727 3.22727 472.727C1.99718 472.727 1 471.73 1 470.5C1 469.27 1.99718 468.273 3.22727 468.273C4.45736 468.273 5.45455 469.27 5.45455 470.5ZM19.7727 472.727C21.0028 472.727 22 471.73 22 470.5C22 469.27 21.0028 468.273 19.7727 468.273C18.5426 468.273 17.5455 469.27 17.5455 470.5C17.5455 471.73 18.5426 472.727 19.7727 472.727ZM85.5 464.455C86.7301 464.455 87.7273 463.457 87.7273 462.227C87.7273 460.997 86.7301 460 85.5 460C84.2699 460 83.2727 460.997 83.2727 462.227C83.2727 463.457 84.2699 464.455 85.5 464.455ZM85.5 481C86.7301 481 87.7273 480.003 87.7273 478.773C87.7273 477.543 86.7301 476.545 85.5 476.545C84.2699 476.545 83.2727 477.543 83.2727 478.773C83.2727 480.003 84.2699 481 85.5 481ZM79.4545 470.5C79.4545 471.73 78.4574 472.727 77.2273 472.727C75.9972 472.727 75 471.73 75 470.5C75 469.27 75.9972 468.273 77.2273 468.273C78.4574 468.273 79.4545 469.27 79.4545 470.5ZM93.7727 472.727C95.0028 472.727 96 471.73 96 470.5C96 469.27 95.0028 468.273 93.7727 468.273C92.5426 468.273 91.5455 469.27 91.5455 470.5C91.5455 471.73 92.5426 472.727 93.7727 472.727ZM161.727 462.227C161.727 463.457 160.73 464.455 159.5 464.455C158.27 464.455 157.273 463.457 157.273 462.227C157.273 460.997 158.27 460 159.5 460C160.73 460 161.727 460.997 161.727 462.227ZM161.727 478.773C161.727 480.003 160.73 481 159.5 481C158.27 481 157.273 480.003 157.273 478.773C157.273 477.543 158.27 476.545 159.5 476.545C160.73 476.545 161.727 477.543 161.727 478.773ZM151.227 472.727C152.457 472.727 153.455 471.73 153.455 470.5C153.455 469.27 152.457 468.273 151.227 468.273C149.997 468.273 149 469.27 149 470.5C149 471.73 149.997 472.727 151.227 472.727ZM170 470.5C170 471.73 169.003 472.727 167.773 472.727C166.543 472.727 165.545 471.73 165.545 470.5C165.545 469.27 166.543 468.273 167.773 468.273C169.003 468.273 170 469.27 170 470.5ZM233.5 464.455C234.73 464.455 235.727 463.457 235.727 462.227C235.727 460.997 234.73 460 233.5 460C232.27 460 231.273 460.997 231.273 462.227C231.273 463.457 232.27 464.455 233.5 464.455ZM233.5 481C234.73 481 235.727 480.003 235.727 478.773C235.727 477.543 234.73 476.545 233.5 476.545C232.27 476.545 231.273 477.543 231.273 478.773C231.273 480.003 232.27 481 233.5 481ZM227.455 470.5C227.455 471.73 226.457 472.727 225.227 472.727C223.997 472.727 223 471.73 223 470.5C223 469.27 223.997 468.273 225.227 468.273C226.457 468.273 227.455 469.27 227.455 470.5ZM241.773 472.727C243.003 472.727 244 471.73 244 470.5C244 469.27 243.003 468.273 241.773 468.273C240.543 468.273 239.545 469.27 239.545 470.5C239.545 471.73 240.543 472.727 241.773 472.727ZM309.727 462.227C309.727 463.457 308.73 464.455 307.5 464.455C306.27 464.455 305.273 463.457 305.273 462.227C305.273 460.997 306.27 460 307.5 460C308.73 460 309.727 460.997 309.727 462.227ZM309.727 478.773C309.727 480.003 308.73 481 307.5 481C306.27 481 305.273 480.003 305.273 478.773C305.273 477.543 306.27 476.545 307.5 476.545C308.73 476.545 309.727 477.543 309.727 478.773ZM299.227 472.727C300.457 472.727 301.455 471.73 301.455 470.5C301.455 469.27 300.457 468.273 299.227 468.273C297.997 468.273 297 469.27 297 470.5C297 471.73 297.997 472.727 299.227 472.727ZM318 470.5C318 471.73 317.003 472.727 315.773 472.727C314.543 472.727 313.545 471.73 313.545 470.5C313.545 469.27 314.543 468.273 315.773 468.273C317.003 468.273 318 469.27 318 470.5ZM381.5 464.455C382.73 464.455 383.727 463.457 383.727 462.227C383.727 460.997 382.73 460 381.5 460C380.27 460 379.273 460.997 379.273 462.227C379.273 463.457 380.27 464.455 381.5 464.455ZM381.5 481C382.73 481 383.727 480.003 383.727 478.773C383.727 477.543 382.73 476.545 381.5 476.545C380.27 476.545 379.273 477.543 379.273 478.773C379.273 480.003 380.27 481 381.5 481ZM375.455 470.5C375.455 471.73 374.457 472.727 373.227 472.727C371.997 472.727 371 471.73 371 470.5C371 469.27 371.997 468.273 373.227 468.273C374.457 468.273 375.455 469.27 375.455 470.5ZM389.773 472.727C391.003 472.727 392 471.73 392 470.5C392 469.27 391.003 468.273 389.773 468.273C388.543 468.273 387.545 469.27 387.545 470.5C387.545 471.73 388.543 472.727 389.773 472.727Z" fill="white" fill-opacity="0.08"/>
<path fill-rule="evenodd" clip-rule="evenodd" d="M197.803 234.238C197.803 234.958 197.202 235.517 196.521 235.517C195.8 235.517 195.239 234.998 195.239 234.278C195.239 233.559 195.84 233 196.521 233C197.202 233 197.803 233.519 197.803 234.238ZM198.404 241.35C198.404 242.428 197.523 243.307 196.441 243.307C195.36 243.307 194.479 242.428 194.479 241.35C194.479 240.271 195.36 239.392 196.441 239.392C197.523 239.392 198.404 240.271 198.404 241.35ZM182.743 256.011C182.022 256.011 181.462 256.571 181.462 257.29C181.462 257.969 182.022 258.568 182.743 258.568C183.464 258.568 184.025 258.009 184.025 257.29C183.985 256.571 183.424 256.011 182.743 256.011ZM210.139 256.011C209.458 256.011 208.857 256.571 208.857 257.29C208.857 257.969 209.418 258.568 210.139 258.568C210.82 258.568 211.421 258.009 211.421 257.29C211.421 256.571 210.86 256.011 210.139 256.011ZM203.65 251.697C202.569 251.697 201.688 252.576 201.688 253.654C201.688 254.733 202.569 255.612 203.65 255.612C204.732 255.612 205.613 254.733 205.613 253.654C205.613 252.576 204.732 251.697 203.65 251.697ZM189.112 255.572C190.193 255.572 191.074 254.693 191.074 253.614C191.074 252.536 190.193 251.657 189.112 251.657C188.03 251.657 187.149 252.536 187.149 253.614C187.149 254.693 188.03 255.572 189.112 255.572ZM193.598 248.98C193.598 247.422 194.879 246.144 196.441 246.144C198.003 246.144 199.285 247.422 199.285 248.98C199.285 250.538 198.003 251.816 196.441 251.816C194.879 251.816 193.598 250.538 193.598 248.98Z" fill="white"/>
<path fill-rule="evenodd" clip-rule="evenodd" d="M211.421 240.67C211.421 241.377 210.847 241.949 210.139 241.949C209.431 241.949 208.857 241.377 208.857 240.67C208.857 239.964 209.431 239.392 210.139 239.392C210.847 239.392 211.421 239.964 211.421 240.67ZM194.479 257.969C194.479 256.89 195.36 256.011 196.441 256.011C197.523 256.011 198.404 256.89 198.404 257.969C198.404 259.048 197.523 259.926 196.441 259.926C195.36 259.926 194.479 259.048 194.479 257.969ZM203.771 242.388C202.689 242.388 201.808 243.267 201.808 244.346C201.808 245.425 202.689 246.303 203.771 246.303C204.852 246.303 205.733 245.425 205.733 244.346C205.733 243.267 204.852 242.388 203.771 242.388ZM195.079 263.722C195.079 263.003 195.68 262.443 196.361 262.443C197.042 262.443 197.603 263.003 197.643 263.722C197.643 264.441 197.082 265 196.361 265C195.64 265 195.079 264.401 195.079 263.722ZM182.743 241.949C183.424 241.949 184.025 241.39 184.025 240.67C184.025 239.991 183.464 239.392 182.743 239.392C182.022 239.392 181.462 239.991 181.462 240.67C181.462 241.39 182.022 241.949 182.743 241.949ZM190.626 242.959C191.393 243.723 191.393 244.963 190.626 245.727C189.86 246.492 188.617 246.492 187.851 245.727C187.084 244.963 187.084 243.723 187.851 242.959C188.617 242.194 189.86 242.194 190.626 242.959Z" fill="white" fill-opacity="0.4"/>
</svg>
