<svg width="161" height="65" viewBox="0 0 161 65" fill="none" xmlns="http://www.w3.org/2000/svg">
<path fill-rule="evenodd" clip-rule="evenodd" d="M80.0049 26.8423V10.8018H87.7418C89.8347 10.8018 91.5313 12.5033 91.5313 14.6023V15.7551C91.5313 16.7654 91.1382 17.6835 90.4972 18.3642C91.6333 19.0205 92.3982 20.2506 92.3982 21.66V23.0418C92.3982 25.1407 90.7016 26.8423 88.6087 26.8423H80.0049ZM81.6893 17.8594H87.9154C88.997 17.771 89.8473 16.8626 89.8473 15.7551V14.6023C89.8473 13.4362 88.9047 12.4909 87.742 12.4909H81.6893V17.8594ZM81.6893 25.1532V19.5557L88.609 19.5486C89.7717 19.5486 90.7142 20.4939 90.7142 21.66V23.0418C90.7142 24.2079 89.7717 25.1532 88.609 25.1532H81.6893ZM97.2554 10.8018V26.8423H95.4933V10.8018H97.2554ZM105.988 15.133H104.161C102.056 15.133 100.35 16.844 100.35 18.9547V23.0206C100.35 25.1313 102.056 26.8423 104.161 26.8423H105.988C108.092 26.8423 109.799 25.1313 109.799 23.0206V18.9547C109.799 16.844 108.092 15.133 105.988 15.133ZM104.161 16.9003C103.03 16.9003 102.112 17.8201 102.112 18.9547V23.0206C102.112 24.1553 103.03 25.0751 104.161 25.0751H105.988C107.119 25.0751 108.036 24.1553 108.036 23.0206V18.9547C108.036 17.8201 107.119 16.9003 105.988 16.9003H104.161ZM125.204 26.8484V21.0781H127.352L130.674 26.8484H132.709L128.888 20.211L131.881 15.0121H129.846L127.372 19.3108H125.204V10.8018H123.442V26.8484H125.204ZM119.648 19.2672V18.9547C119.648 17.82 118.731 16.9002 117.6 16.9002H115.773C114.641 16.9002 113.724 17.82 113.724 18.9547V23.0206C113.724 24.1552 114.641 25.075 115.773 25.075H117.6C118.731 25.075 119.648 24.1552 119.648 23.0206V22.7081H121.41V23.0206C121.41 25.1313 119.704 26.8423 117.6 26.8423H115.773C113.668 26.8423 111.962 25.1313 111.962 23.0206V18.9547C111.962 16.844 113.668 15.133 115.773 15.133H117.6C119.704 15.133 121.41 16.844 121.41 18.9547V19.2672H119.648ZM137.566 26.8423V10.8018H135.804V26.8423H137.566ZM142.555 21.4703V23.0206C142.555 24.1552 143.472 25.075 144.604 25.075H146.431C147.562 25.075 148.479 24.1552 148.479 23.0206V22.7081H150.241V23.0206C150.241 25.1313 148.535 26.8423 146.431 26.8423H144.604C142.499 26.8423 140.793 25.1313 140.793 23.0206V18.9547C140.793 16.844 142.499 15.133 144.604 15.133H146.431C148.535 15.133 150.241 16.844 150.241 18.9547V19.7031H150.242V21.4703H142.555ZM148.479 19.7031H142.555V18.9547C142.555 17.82 143.472 16.9002 144.604 16.9002H146.431C147.562 16.9002 148.479 17.82 148.479 18.9547V19.7031ZM153.968 17.7853H152.4V16.018H153.968V13.162H155.652V16.018H159.729V17.7853H155.652V23.479C155.652 24.4036 156.399 25.1532 157.321 25.1532C158.243 25.1532 158.991 24.4036 158.991 23.479V23.1274H160.675V23.479C160.675 25.3365 159.174 26.8423 157.321 26.8423C155.469 26.8423 153.968 25.3365 153.968 23.479V17.7853Z" fill="#121319"/>
<path d="M91.034 37.2923C90.922 37.4883 90.8006 37.633 90.67 37.7263C90.5486 37.8103 90.3946 37.8523 90.208 37.8523C90.012 37.8523 89.7973 37.7823 89.564 37.6423C89.34 37.493 89.0693 37.3296 88.752 37.1523C88.4346 36.975 88.0613 36.8163 87.632 36.6763C87.212 36.527 86.7126 36.4523 86.134 36.4523C85.6113 36.4523 85.154 36.5176 84.762 36.6483C84.37 36.7696 84.0386 36.9423 83.768 37.1663C83.5066 37.3903 83.3106 37.661 83.18 37.9783C83.0493 38.2863 82.984 38.627 82.984 39.0003C82.984 39.4763 83.1146 39.873 83.376 40.1903C83.6466 40.5076 84.0013 40.7783 84.44 41.0023C84.8786 41.2263 85.378 41.427 85.938 41.6043C86.498 41.7816 87.072 41.973 87.66 42.1783C88.248 42.3743 88.822 42.6076 89.382 42.8783C89.942 43.1396 90.4413 43.4756 90.88 43.8863C91.3186 44.2876 91.6686 44.7823 91.93 45.3703C92.2006 45.9583 92.336 46.6723 92.336 47.5123C92.336 48.427 92.1773 49.2856 91.86 50.0883C91.552 50.8816 91.0946 51.577 90.488 52.1743C89.8906 52.7623 89.158 53.229 88.29 53.5743C87.422 53.9103 86.428 54.0783 85.308 54.0783C84.664 54.0783 84.0293 54.013 83.404 53.8823C82.7786 53.761 82.1766 53.5836 81.598 53.3503C81.0286 53.117 80.492 52.837 79.988 52.5103C79.484 52.1836 79.036 51.8196 78.644 51.4183L79.75 49.6123C79.8433 49.4816 79.9646 49.3743 80.114 49.2903C80.2633 49.197 80.422 49.1503 80.59 49.1503C80.8233 49.1503 81.0753 49.2483 81.346 49.4443C81.6166 49.631 81.9386 49.841 82.312 50.0743C82.6853 50.3076 83.1193 50.5223 83.614 50.7183C84.118 50.905 84.72 50.9983 85.42 50.9983C86.4933 50.9983 87.324 50.7463 87.912 50.2423C88.5 49.729 88.794 48.9963 88.794 48.0443C88.794 47.5123 88.6586 47.0783 88.388 46.7423C88.1266 46.4063 87.7766 46.1263 87.338 45.9023C86.8993 45.669 86.4 45.473 85.84 45.3143C85.28 45.1556 84.7106 44.983 84.132 44.7963C83.5533 44.6096 82.984 44.3856 82.424 44.1243C81.864 43.863 81.3646 43.5223 80.926 43.1023C80.4873 42.6823 80.1326 42.1596 79.862 41.5343C79.6006 40.8996 79.47 40.1203 79.47 39.1963C79.47 38.459 79.6146 37.7403 79.904 37.0403C80.2026 36.3403 80.632 35.7196 81.192 35.1783C81.752 34.637 82.4426 34.203 83.264 33.8763C84.0853 33.5496 85.028 33.3863 86.092 33.3863C87.2866 33.3863 88.388 33.573 89.396 33.9463C90.404 34.3196 91.2626 34.8423 91.972 35.5143L91.034 37.2923Z" fill="#121319"/>
<path d="M99.2343 54.0783C97.9836 54.0783 97.0223 53.7283 96.3503 53.0283C95.6876 52.319 95.3563 51.3436 95.3563 50.1023V42.0803H93.8863C93.6996 42.0803 93.5409 42.0196 93.4103 41.8983C93.2796 41.777 93.2143 41.595 93.2143 41.3523V39.9803L95.5243 39.6023L96.2523 35.6823C96.2989 35.4956 96.3876 35.351 96.5183 35.2483C96.6489 35.1456 96.8169 35.0943 97.0223 35.0943H98.8143V39.6163H102.65V42.0803H98.8143V49.8643C98.8143 50.3123 98.9216 50.6623 99.1363 50.9143C99.3603 51.1663 99.6636 51.2923 100.046 51.2923C100.261 51.2923 100.438 51.269 100.578 51.2223C100.728 51.1663 100.854 51.1103 100.956 51.0543C101.068 50.9983 101.166 50.947 101.25 50.9003C101.334 50.8443 101.418 50.8163 101.502 50.8163C101.605 50.8163 101.689 50.8443 101.754 50.9003C101.82 50.947 101.89 51.0216 101.964 51.1243L103 52.8043C102.496 53.2243 101.918 53.5416 101.264 53.7563C100.611 53.971 99.9343 54.0783 99.2343 54.0783Z" fill="#121319"/>
<path d="M117.24 39.4903V53.8543H115.126C114.669 53.8543 114.38 53.6443 114.258 53.2243L114.02 52.0763C113.432 52.6736 112.784 53.159 112.074 53.5323C111.365 53.8963 110.53 54.0783 109.568 54.0783C108.784 54.0783 108.089 53.9476 107.482 53.6863C106.885 53.4156 106.381 53.0376 105.97 52.5523C105.56 52.067 105.247 51.493 105.032 50.8303C104.827 50.1583 104.724 49.421 104.724 48.6183V39.4903H108.182V48.6183C108.182 49.4956 108.383 50.177 108.784 50.6623C109.195 51.1383 109.806 51.3763 110.618 51.3763C111.216 51.3763 111.776 51.2456 112.298 50.9843C112.821 50.7136 113.316 50.345 113.782 49.8783V39.4903H117.24Z" fill="#121319"/>
<path d="M129.685 43.1583C129.293 42.6823 128.864 42.3463 128.397 42.1503C127.94 41.9543 127.445 41.8563 126.913 41.8563C126.39 41.8563 125.919 41.9543 125.499 42.1503C125.079 42.3463 124.72 42.645 124.421 43.0463C124.122 43.4383 123.894 43.9423 123.735 44.5583C123.576 45.165 123.497 45.8836 123.497 46.7143C123.497 47.5543 123.562 48.2683 123.693 48.8563C123.833 49.435 124.029 49.911 124.281 50.2843C124.533 50.6483 124.841 50.9143 125.205 51.0823C125.569 51.241 125.975 51.3203 126.423 51.3203C127.142 51.3203 127.753 51.171 128.257 50.8723C128.761 50.5736 129.237 50.149 129.685 49.5983V43.1583ZM133.143 33.0503V53.8543H131.029C130.572 53.8543 130.282 53.6443 130.161 53.2243L129.867 51.8383C129.288 52.501 128.621 53.0376 127.865 53.4483C127.118 53.859 126.246 54.0643 125.247 54.0643C124.463 54.0643 123.744 53.901 123.091 53.5743C122.438 53.2476 121.873 52.7763 121.397 52.1603C120.93 51.535 120.566 50.765 120.305 49.8503C120.053 48.9356 119.927 47.8903 119.927 46.7143C119.927 45.6503 120.072 44.661 120.361 43.7463C120.65 42.8316 121.066 42.0383 121.607 41.3663C122.148 40.6943 122.797 40.1716 123.553 39.7983C124.309 39.4156 125.158 39.2243 126.101 39.2243C126.904 39.2243 127.59 39.3503 128.159 39.6023C128.728 39.8543 129.237 40.195 129.685 40.6243V33.0503H133.143Z" fill="#121319"/>
<path d="M140.14 39.4903V53.8543H136.668V39.4903H140.14ZM140.616 35.3043C140.616 35.603 140.555 35.883 140.434 36.1443C140.312 36.4056 140.149 36.6343 139.944 36.8303C139.748 37.0263 139.514 37.185 139.244 37.3063C138.973 37.4183 138.684 37.4743 138.376 37.4743C138.077 37.4743 137.792 37.4183 137.522 37.3063C137.26 37.185 137.032 37.0263 136.836 36.8303C136.64 36.6343 136.481 36.4056 136.36 36.1443C136.248 35.883 136.192 35.603 136.192 35.3043C136.192 34.9963 136.248 34.707 136.36 34.4363C136.481 34.1656 136.64 33.9323 136.836 33.7363C137.032 33.5403 137.26 33.3863 137.522 33.2743C137.792 33.153 138.077 33.0923 138.376 33.0923C138.684 33.0923 138.973 33.153 139.244 33.2743C139.514 33.3863 139.748 33.5403 139.944 33.7363C140.149 33.9323 140.312 34.1656 140.434 34.4363C140.555 34.707 140.616 34.9963 140.616 35.3043Z" fill="#121319"/>
<path d="M150.021 39.2663C151.085 39.2663 152.051 39.439 152.919 39.7843C153.796 40.1296 154.543 40.6196 155.159 41.2543C155.784 41.889 156.265 42.6636 156.601 43.5783C156.937 44.493 157.105 45.515 157.105 46.6443C157.105 47.783 156.937 48.8096 156.601 49.7243C156.265 50.639 155.784 51.4183 155.159 52.0623C154.543 52.7063 153.796 53.201 152.919 53.5463C152.051 53.8916 151.085 54.0643 150.021 54.0643C148.948 54.0643 147.972 53.8916 147.095 53.5463C146.218 53.201 145.466 52.7063 144.841 52.0623C144.225 51.4183 143.744 50.639 143.399 49.7243C143.063 48.8096 142.895 47.783 142.895 46.6443C142.895 45.515 143.063 44.493 143.399 43.5783C143.744 42.6636 144.225 41.889 144.841 41.2543C145.466 40.6196 146.218 40.1296 147.095 39.7843C147.972 39.439 148.948 39.2663 150.021 39.2663ZM150.021 51.4043C151.216 51.4043 152.098 51.003 152.667 50.2003C153.246 49.3976 153.535 48.2216 153.535 46.6723C153.535 45.123 153.246 43.9423 152.667 43.1303C152.098 42.3183 151.216 41.9123 150.021 41.9123C148.808 41.9123 147.907 42.323 147.319 43.1443C146.74 43.9563 146.451 45.1323 146.451 46.6723C146.451 48.2123 146.74 49.3883 147.319 50.2003C147.907 51.003 148.808 51.4043 150.021 51.4043Z" fill="#121319"/>
<path fill-rule="evenodd" clip-rule="evenodd" d="M50.12 11.4073L31.7 0.772461L13.28 11.4073V25.5506L1 32.6404V53.91L19.42 64.5448L31.6702 57.4721L31.7 57.4894L31.7298 57.4721L43.98 64.5448L62.4 53.91V32.6404L50.12 25.5506V11.4073ZM60.4813 33.7482L48.2013 26.6583V12.515L31.7 2.98804L15.1988 12.515V26.6583L2.91875 33.7482V52.8022L19.42 62.3292L31.6702 55.2566L31.7 55.2738L31.7298 55.2566L43.98 62.3292L60.4813 52.8022V33.7482Z" fill="url(#paint0_linear_2948_12314)"/>
<path fill-rule="evenodd" clip-rule="evenodd" d="M31.6998 14.9521L50.1198 25.5869V46.8565L31.6998 57.4913L13.2798 46.8565V25.5869L31.6998 14.9521ZM16.1579 26.1408L30.7404 34.56V17.7216L16.1579 26.1408ZM29.7811 36.2217L15.1986 27.8025V44.6409L29.7811 36.2217ZM32.6592 37.8834L47.2417 46.3026L32.6592 54.7218V37.8834ZM48.2011 44.6409L33.6186 36.2217L48.2011 27.8025V44.6409ZM30.7404 54.7218L16.1579 46.3026L30.7404 37.8834V54.7218ZM32.6592 17.7216L47.2417 26.1408L32.6592 34.56V17.7216Z" fill="url(#paint1_linear_2948_12314)"/>
<defs>
<linearGradient id="paint0_linear_2948_12314" x1="31.7" y1="-31.1137" x2="-32.0265" y2="30.2422" gradientUnits="userSpaceOnUse">
<stop stop-color="#4EF1BA"/>
<stop offset="0.501904" stop-color="#16CED1"/>
<stop offset="1" stop-color="#3773F2"/>
</linearGradient>
<linearGradient id="paint1_linear_2948_12314" x1="34.1078" y1="-36.3413" x2="-36.2973" y2="19.2796" gradientUnits="userSpaceOnUse">
<stop stop-color="#4EF1BA"/>
<stop offset="0.501904" stop-color="#16CED1"/>
<stop offset="1" stop-color="#3773F2"/>
</linearGradient>
</defs>
</svg>
