<svg width="32" height="32" viewBox="0 0 32 32" fill="none" xmlns="http://www.w3.org/2000/svg">
<path d="M4.00572 31C3.25866 31 2.53839 30.7217 1.98537 30.2194C1.43235 29.7171 1.08623 29.0269 1.01451 28.2833L1.00049 27.9948V5.95637C1.00052 5.2093 1.27881 4.48903 1.78109 3.93601C2.28336 3.38299 2.9736 3.03688 3.71722 2.96516L4.00572 2.95113H13.0214C13.7682 2.95112 14.4882 3.22913 15.0412 3.73099C15.5941 4.23285 15.9405 4.92261 16.0126 5.66586L16.0267 5.95637V6.46526L20.4123 1.91934C20.9292 1.38325 21.6267 1.05817 22.3696 1.00708C23.1125 0.956001 23.8479 1.18256 24.4333 1.64285L24.6657 1.84521L30.1893 7.30472C30.7197 7.82899 31.0362 8.53173 31.0773 9.27635C31.1184 10.021 30.8812 10.7543 30.4117 11.3337L30.2054 11.5661L25.5753 15.9738H26.0441C26.7909 15.9738 27.5109 16.2518 28.0639 16.7537C28.6168 17.2555 28.9631 17.9453 29.0353 18.6886L29.0494 18.9791V27.9948C29.0494 28.7415 28.7714 29.4615 28.2695 30.0145C27.7676 30.5675 27.0779 30.9138 26.3346 30.986L26.0441 31H4.00572ZM14.0232 17.9773H3.00398V27.9948C3.00388 28.1993 3.06641 28.399 3.18317 28.567C3.29993 28.735 3.46533 28.8632 3.65712 28.9344L3.82541 28.9805L4.00572 28.9965H14.0232V17.9773ZM26.0441 17.9773H16.0267V28.9965H26.0441C26.2786 28.9966 26.5056 28.9144 26.6858 28.7643C26.8659 28.6142 26.9876 28.4057 27.0298 28.1751L27.0459 27.9948V18.9791C27.0459 18.7446 26.9638 18.5175 26.8137 18.3374C26.6636 18.1573 26.4551 18.0355 26.2244 17.9933L26.0441 17.9773ZM16.0267 12.3876V15.9738H19.6129L16.0267 12.3876ZM13.0214 4.95462H4.00572C3.77126 4.95455 3.5442 5.03671 3.36409 5.18681C3.18397 5.3369 3.06221 5.54542 3.02001 5.77605L3.00398 5.95637V15.9738H14.0232V5.95637C14.0233 5.75179 13.9607 5.55209 13.844 5.38411C13.7272 5.21613 13.5618 5.08792 13.37 5.01673L13.2017 4.97065L13.0214 4.95462ZM23.2833 3.29774C23.1148 3.13081 22.8929 3.02865 22.6565 3.00922C22.4202 2.9898 22.1845 3.05436 21.9911 3.19155L21.8548 3.31176L16.6137 8.74723C16.4555 8.91127 16.358 9.12433 16.3373 9.35125C16.3165 9.57817 16.3737 9.80539 16.4995 9.99541L16.6257 10.1517L21.8668 15.3908C22.0273 15.5515 22.2377 15.653 22.4634 15.6785C22.6891 15.7039 22.9167 15.652 23.109 15.531L23.2653 15.4088L28.7909 10.1457C28.9556 9.97892 29.0567 9.7597 29.0764 9.52614C29.0962 9.29259 29.0334 9.0595 28.8991 8.86744L28.7809 8.7292L23.2833 3.29774Z" />
</svg>
