<svg width="140" height="44" viewBox="0 0 227 54" fill="none" xmlns="http://www.w3.org/2000/svg">
<g clip-path="url(#clip0_2441_9532)">
<circle cx="27" cy="27" r="27" fill="url(#paint0_radial_2441_9532)"/>
<path d="M29.0086 14.3987L31.6443 12.877H41.2391V41.0301H31.9123C31.7368 41.0301 31.5643 40.9839 31.4123 40.8961L21.3311 35.0757L21.3311 18.8313L22.5532 18.1257L24.7053 19.3682L23.4831 20.0738V33.8332L32.221 38.878H39.087V15.029H32.221L31.1607 15.6412L29.0086 14.3987Z" fill="white"/>
<path fill-rule="evenodd" clip-rule="evenodd" d="M30.2176 33.8332V20.0738L21.4797 15.029H14.6138V38.878H21.4797L22.5433 38.2639L24.6954 39.5064L22.0564 41.0301H12.4617V12.877H22.0564L32.3697 18.8313V35.0757L31.1507 35.7794L28.9987 34.5369L30.2176 33.8332Z" fill="white"/>
<path d="M145.72 19.7681C145.613 19.9494 145.501 20.0827 145.384 20.1681C145.267 20.2534 145.117 20.2961 144.936 20.2961C144.744 20.2961 144.525 20.2107 144.28 20.0401C144.035 19.8587 143.725 19.6614 143.352 19.4481C142.989 19.2241 142.552 19.0267 142.04 18.8561C141.528 18.6747 140.915 18.5841 140.2 18.5841C139.528 18.5841 138.936 18.6747 138.424 18.8561C137.923 19.0267 137.501 19.2667 137.16 19.5761C136.819 19.8747 136.557 20.2321 136.376 20.6481C136.205 21.0534 136.12 21.4961 136.12 21.9761C136.12 22.5947 136.275 23.1067 136.584 23.5121C136.904 23.9174 137.32 24.2641 137.832 24.5521C138.344 24.8401 138.925 25.0907 139.576 25.3041C140.227 25.5174 140.893 25.7414 141.576 25.9761C142.259 26.2001 142.925 26.4614 143.576 26.7601C144.227 27.0587 144.808 27.4374 145.32 27.8961C145.832 28.3441 146.243 28.8987 146.552 29.5601C146.872 30.2107 147.032 31.0107 147.032 31.9601C147.032 32.9734 146.856 33.9227 146.504 34.8081C146.163 35.6934 145.661 36.4667 145 37.1281C144.339 37.7894 143.523 38.3121 142.552 38.6961C141.592 39.0694 140.499 39.2561 139.272 39.2561C138.536 39.2561 137.821 39.1814 137.128 39.0321C136.435 38.8934 135.779 38.6961 135.16 38.4401C134.541 38.1734 133.96 37.8587 133.416 37.4961C132.883 37.1227 132.403 36.7067 131.976 36.2481L132.952 34.6161C133.048 34.4881 133.16 34.3814 133.288 34.2961C133.427 34.2107 133.581 34.1681 133.752 34.1681C133.976 34.1681 134.232 34.2854 134.52 34.5201C134.819 34.7547 135.181 35.0161 135.608 35.3041C136.045 35.5814 136.563 35.8374 137.16 36.0721C137.768 36.3067 138.504 36.4241 139.368 36.4241C140.072 36.4241 140.701 36.3334 141.256 36.1521C141.811 35.9601 142.275 35.6934 142.648 35.3521C143.032 35.0001 143.325 34.5787 143.528 34.0881C143.731 33.5974 143.832 33.0534 143.832 32.4561C143.832 31.7841 143.677 31.2347 143.368 30.8081C143.059 30.3814 142.648 30.0241 142.136 29.7361C141.624 29.4481 141.043 29.2027 140.392 29.0001C139.741 28.7974 139.075 28.5894 138.392 28.3761C137.709 28.1521 137.043 27.8961 136.392 27.6081C135.741 27.3201 135.16 26.9467 134.648 26.4881C134.136 26.0187 133.725 25.4374 133.416 24.7441C133.107 24.0401 132.952 23.1761 132.952 22.1521C132.952 21.3307 133.112 20.5361 133.432 19.7681C133.752 19.0001 134.216 18.3227 134.824 17.7361C135.443 17.1387 136.2 16.6641 137.096 16.3121C137.992 15.9494 139.016 15.7681 140.168 15.7681C141.459 15.7681 142.643 15.9761 143.72 16.3921C144.808 16.7974 145.752 17.3841 146.552 18.1521L145.72 19.7681Z" fill="#2482F6"/>
<path d="M153.375 35.0001C153.887 35.6721 154.436 36.1414 155.023 36.4081C155.62 36.6747 156.287 36.8081 157.023 36.8081C158.452 36.8081 159.556 36.2961 160.335 35.2721C161.124 34.2374 161.519 32.7334 161.519 30.7601C161.519 29.7254 161.428 28.8454 161.247 28.1201C161.076 27.3841 160.82 26.7867 160.479 26.3281C160.148 25.8587 159.737 25.5174 159.247 25.3041C158.756 25.0801 158.201 24.9681 157.583 24.9681C156.676 24.9681 155.887 25.1707 155.215 25.5761C154.553 25.9814 153.94 26.5574 153.375 27.3041V35.0001ZM153.215 25.1761C153.556 24.7707 153.919 24.4027 154.303 24.0721C154.697 23.7307 155.119 23.4427 155.567 23.2081C156.015 22.9627 156.489 22.7761 156.991 22.6481C157.503 22.5094 158.047 22.4401 158.623 22.4401C159.551 22.4401 160.388 22.6214 161.135 22.9841C161.892 23.3467 162.537 23.8801 163.071 24.5841C163.604 25.2881 164.015 26.1574 164.303 27.1921C164.601 28.2267 164.751 29.4161 164.751 30.7601C164.751 31.9654 164.585 33.0854 164.255 34.1201C163.935 35.1441 163.471 36.0347 162.863 36.7921C162.265 37.5494 161.529 38.1467 160.655 38.5841C159.791 39.0107 158.815 39.2241 157.727 39.2241C156.756 39.2241 155.924 39.0641 155.231 38.7441C154.537 38.4241 153.919 37.9761 153.375 37.4001V44.4561H150.255V22.7441H152.127C152.564 22.7441 152.836 22.9521 152.943 23.3681L153.215 25.1761Z" fill="#2482F6"/>
<path d="M176.991 31.7841C175.721 31.8267 174.644 31.9281 173.759 32.0881C172.873 32.2374 172.153 32.4401 171.599 32.6961C171.044 32.9521 170.644 33.2561 170.399 33.6081C170.153 33.9494 170.031 34.3334 170.031 34.7601C170.031 35.1654 170.095 35.5174 170.223 35.8161C170.361 36.1041 170.543 36.3441 170.767 36.5361C171.001 36.7174 171.273 36.8507 171.583 36.9361C171.892 37.0214 172.228 37.0641 172.591 37.0641C173.071 37.0641 173.508 37.0161 173.903 36.9201C174.308 36.8241 174.687 36.6907 175.039 36.5201C175.391 36.3387 175.727 36.1201 176.047 35.8641C176.367 35.6081 176.681 35.3147 176.991 34.9841V31.7841ZM167.839 25.0161C168.745 24.1521 169.727 23.5067 170.783 23.0801C171.849 22.6534 173.017 22.4401 174.287 22.4401C175.215 22.4401 176.036 22.5947 176.751 22.9041C177.465 23.2027 178.068 23.6241 178.559 24.1681C179.049 24.7121 179.417 25.3627 179.663 26.1201C179.919 26.8774 180.047 27.7147 180.047 28.6321V39.0001H178.655C178.345 39.0001 178.111 38.9521 177.951 38.8561C177.791 38.7494 177.663 38.5574 177.567 38.2801L177.231 36.8561C176.815 37.2401 176.404 37.5814 175.999 37.8801C175.593 38.1681 175.167 38.4187 174.719 38.6321C174.281 38.8347 173.812 38.9894 173.311 39.0961C172.809 39.2027 172.255 39.2561 171.647 39.2561C171.007 39.2561 170.404 39.1707 169.839 39.0001C169.284 38.8187 168.799 38.5467 168.383 38.1841C167.967 37.8214 167.636 37.3681 167.391 36.8241C167.156 36.2801 167.039 35.6454 167.039 34.9201C167.039 34.2801 167.209 33.6667 167.551 33.0801C167.903 32.4827 168.468 31.9494 169.247 31.4801C170.036 31.0107 171.06 30.6267 172.319 30.3281C173.588 30.0294 175.145 29.8587 176.991 29.8161V28.6321C176.991 27.4054 176.729 26.4881 176.207 25.8801C175.684 25.2721 174.916 24.9681 173.903 24.9681C173.22 24.9681 172.644 25.0534 172.175 25.2241C171.716 25.3947 171.316 25.5867 170.975 25.8001C170.644 26.0027 170.351 26.1894 170.095 26.3601C169.849 26.5307 169.593 26.6161 169.327 26.6161C169.113 26.6161 168.927 26.5574 168.767 26.4401C168.617 26.3227 168.495 26.1841 168.399 26.0241L167.839 25.0161Z" fill="#2482F6"/>
<path d="M195.615 25.7841C195.519 25.9014 195.423 25.9974 195.327 26.0721C195.242 26.1361 195.114 26.1681 194.943 26.1681C194.773 26.1681 194.591 26.1041 194.399 25.9761C194.218 25.8374 193.983 25.6934 193.695 25.5441C193.418 25.3841 193.077 25.2401 192.671 25.1121C192.277 24.9734 191.786 24.9041 191.199 24.9041C190.431 24.9041 189.754 25.0427 189.167 25.3201C188.581 25.5974 188.09 25.9921 187.695 26.5041C187.311 27.0161 187.018 27.6401 186.815 28.3761C186.613 29.1121 186.511 29.9387 186.511 30.8561C186.511 31.8054 186.618 32.6534 186.831 33.4001C187.045 34.1361 187.349 34.7601 187.743 35.2721C188.138 35.7734 188.618 36.1574 189.183 36.4241C189.749 36.6801 190.378 36.8081 191.071 36.8081C191.743 36.8081 192.298 36.7281 192.735 36.5681C193.173 36.3974 193.535 36.2161 193.823 36.0241C194.111 35.8321 194.351 35.6561 194.543 35.4961C194.735 35.3254 194.933 35.2401 195.135 35.2401C195.391 35.2401 195.589 35.3361 195.727 35.5281L196.623 36.6801C196.25 37.1387 195.829 37.5281 195.359 37.8481C194.901 38.1681 194.41 38.4294 193.887 38.6321C193.365 38.8347 192.815 38.9841 192.239 39.0801C191.674 39.1761 191.098 39.2241 190.511 39.2241C189.498 39.2241 188.549 39.0374 187.663 38.6641C186.789 38.2907 186.026 37.7467 185.375 37.0321C184.735 36.3174 184.229 35.4427 183.855 34.4081C183.482 33.3627 183.295 32.1787 183.295 30.8561C183.295 29.6507 183.461 28.5361 183.791 27.5121C184.133 26.4881 184.629 25.6081 185.279 24.8721C185.941 24.1254 186.751 23.5441 187.711 23.1281C188.671 22.7014 189.77 22.4881 191.007 22.4881C192.17 22.4881 193.194 22.6747 194.079 23.0481C194.965 23.4214 195.754 23.9494 196.447 24.6321L195.615 25.7841Z" fill="#2482F6"/>
<path d="M210.023 29.0641C210.023 28.4454 209.932 27.8747 209.751 27.3521C209.58 26.8294 209.324 26.3761 208.983 25.9921C208.641 25.6081 208.225 25.3094 207.735 25.0961C207.244 24.8827 206.679 24.7761 206.039 24.7761C204.727 24.7761 203.692 25.1547 202.935 25.9121C202.188 26.6694 201.713 27.7201 201.511 29.0641H210.023ZM212.599 36.6801C212.215 37.1281 211.772 37.5174 211.271 37.8481C210.769 38.1681 210.236 38.4294 209.671 38.6321C209.105 38.8347 208.519 38.9841 207.911 39.0801C207.313 39.1761 206.721 39.2241 206.135 39.2241C205.015 39.2241 203.975 39.0374 203.015 38.6641C202.065 38.2801 201.239 37.7254 200.535 37.0001C199.841 36.2641 199.297 35.3574 198.903 34.2801C198.519 33.1921 198.327 31.9441 198.327 30.5361C198.327 29.4054 198.503 28.3547 198.855 27.3841C199.207 26.4027 199.708 25.5494 200.359 24.8241C201.02 24.0987 201.825 23.5281 202.775 23.1121C203.724 22.6961 204.791 22.4881 205.975 22.4881C206.967 22.4881 207.879 22.6534 208.711 22.9841C209.553 23.3041 210.279 23.7734 210.887 24.3921C211.495 25.0107 211.969 25.7734 212.311 26.6801C212.663 27.5867 212.839 28.6214 212.839 29.7841C212.839 30.2641 212.785 30.5894 212.679 30.7601C212.572 30.9201 212.375 31.0001 212.087 31.0001H201.431C201.463 31.9707 201.601 32.8187 201.847 33.5441C202.092 34.2587 202.428 34.8561 202.855 35.3361C203.292 35.8161 203.809 36.1734 204.407 36.4081C205.004 36.6427 205.671 36.7601 206.407 36.7601C207.1 36.7601 207.697 36.6801 208.199 36.5201C208.711 36.3601 209.148 36.1894 209.511 36.0081C209.884 35.8161 210.193 35.6401 210.439 35.4801C210.695 35.3201 210.919 35.2401 211.111 35.2401C211.367 35.2401 211.564 35.3361 211.703 35.5281L212.599 36.6801Z" fill="#2482F6"/>
<path d="M225.776 25.5441C225.691 25.6827 225.6 25.7841 225.504 25.8481C225.408 25.9014 225.285 25.9281 225.136 25.9281C224.965 25.9281 224.773 25.8694 224.56 25.7521C224.357 25.6347 224.107 25.5067 223.808 25.3681C223.52 25.2294 223.179 25.1014 222.784 24.9841C222.389 24.8667 221.92 24.8081 221.376 24.8081C220.928 24.8081 220.517 24.8667 220.144 24.9841C219.781 25.0907 219.472 25.2454 219.216 25.4481C218.96 25.6401 218.763 25.8747 218.624 26.1521C218.485 26.4187 218.416 26.7067 218.416 27.0161C218.416 27.4214 218.533 27.7574 218.768 28.0241C219.013 28.2907 219.328 28.5201 219.712 28.7121C220.107 28.9041 220.549 29.0801 221.04 29.2401C221.541 29.3894 222.048 29.5494 222.56 29.7201C223.083 29.8907 223.589 30.0881 224.08 30.3121C224.581 30.5254 225.024 30.7974 225.408 31.1281C225.803 31.4481 226.117 31.8374 226.352 32.2961C226.597 32.7547 226.72 33.3147 226.72 33.9761C226.72 34.7334 226.581 35.4374 226.304 36.0881C226.037 36.7281 225.637 37.2827 225.104 37.7521C224.581 38.2214 223.931 38.5894 223.152 38.8561C222.373 39.1227 221.483 39.2561 220.48 39.2561C219.36 39.2561 218.325 39.0694 217.376 38.6961C216.427 38.3227 215.632 37.8481 214.992 37.2721L215.728 36.0721C215.813 35.9227 215.92 35.8107 216.048 35.7361C216.176 35.6507 216.347 35.6081 216.56 35.6081C216.763 35.6081 216.971 35.6827 217.184 35.8321C217.397 35.9814 217.653 36.1467 217.952 36.3281C218.251 36.4987 218.613 36.6587 219.04 36.8081C219.467 36.9467 220 37.0161 220.64 37.0161C221.173 37.0161 221.637 36.9521 222.032 36.8241C222.427 36.6854 222.752 36.5041 223.008 36.2801C223.275 36.0454 223.472 35.7787 223.6 35.4801C223.728 35.1814 223.792 34.8667 223.792 34.5361C223.792 34.1094 223.669 33.7574 223.424 33.4801C223.189 33.1921 222.875 32.9467 222.48 32.7441C222.096 32.5414 221.653 32.3654 221.152 32.2161C220.651 32.0667 220.139 31.9067 219.616 31.7361C219.093 31.5654 218.581 31.3681 218.08 31.1441C217.579 30.9201 217.131 30.6374 216.736 30.2961C216.352 29.9547 216.037 29.5387 215.792 29.0481C215.557 28.5574 215.44 27.9601 215.44 27.2561C215.44 26.6267 215.568 26.0241 215.824 25.4481C216.091 24.8721 216.469 24.3654 216.96 23.9281C217.461 23.4907 218.075 23.1441 218.8 22.8881C219.536 22.6214 220.373 22.4881 221.312 22.4881C222.389 22.4881 223.36 22.6587 224.224 23.0001C225.099 23.3414 225.845 23.8107 226.464 24.4081L225.776 25.5441Z" fill="#2482F6"/>
<path fill-rule="evenodd" clip-rule="evenodd" d="M67.8154 39.2842V15H80.6597C83.9281 15.2243 86.4828 17.9486 86.4828 21.2433V33.026C86.4828 36.4823 83.6809 39.2842 80.2246 39.2842H67.8154ZM94.5586 15H91.2237V39.3211H94.5586V15ZM71.1503 35.9493V18.32H80.2246C81.8391 18.32 83.1479 19.6288 83.1479 21.2433V33.026C83.1479 34.6405 81.8391 35.9493 80.2246 35.9493H71.1503ZM99.2432 15V39.2842H111.652C115.109 39.2842 117.911 36.4823 117.911 33.026V21.2433C117.911 17.9486 115.356 15.2243 112.087 15H99.2432ZM122.155 20.6355H125.883V24.3639H122.155V20.6355ZM125.883 29.9572H122.155V33.6856H125.883V29.9572ZM102.578 18.32V35.9493H111.652C113.267 35.9493 114.576 34.6405 114.576 33.026V21.2433C114.576 19.6288 113.267 18.32 111.652 18.32H102.578Z" fill="#363844"/>
</g>
<defs>
<radialGradient id="paint0_radial_2441_9532" cx="0" cy="0" r="1" gradientUnits="userSpaceOnUse" gradientTransform="translate(4.98461 35.1) rotate(-27.2864) scale(51.6469 41.0835)">
<stop stop-color="#016BED"/>
<stop offset="0.69919" stop-color="#4498FB"/>
<stop offset="1" stop-color="#9DFFE8"/>
</radialGradient>
<clipPath id="clip0_2441_9532">
<rect width="227" height="54" fill="white"/>
</clipPath>
</defs>
</svg>
